<svg width="58" height="58" viewBox="0 0 58 58" fill="none" xmlns="http://www.w3.org/2000/svg">
<path d="M28.3483 1.14777L19.9053 9.58344C19.3174 10.1747 19.7362 11.1815 20.57 11.182H23.3751V15.2176C22.4655 15.0326 21.5258 14.9372 20.559 14.9375L16.8071 14.9449V12.1287C16.8092 11.6161 16.3986 11.1969 15.8861 11.1875C15.6319 11.1841 15.3878 11.2836 15.2086 11.464L6.77296 19.8997C6.40955 20.2654 6.40955 20.856 6.77296 21.2217L15.2086 29.6647C15.7999 30.2525 16.8067 29.8338 16.8071 29V26.1839H20.559C22.1334 26.1839 23.3751 27.4568 23.3751 29.0001V31.2211L22.1007 30.1555C21.9577 30.0367 21.7872 29.9653 21.61 29.9449C21.4328 29.9247 21.2489 29.9552 21.0827 30.0383L17.3308 31.9133C16.9015 32.1289 16.7047 32.6341 16.8749 33.0833L10.2996 36.0588C8.97085 36.6595 7.74551 37.2917 6.73634 38.2121C5.68695 39.1691 4.97312 40.3613 4.64711 41.9566L2.84718 50.7255C2.48787 52.4838 3.16264 54.1366 4.3871 55.305C5.5667 56.4306 7.20472 57.125 8.88783 57.125H49.1143C50.7974 57.125 52.4354 56.4306 53.615 55.305C54.8395 54.1366 55.5142 52.4838 55.1549 50.7255L53.355 41.9566C53.029 40.3613 52.3151 39.1691 51.2658 38.2121C50.2566 37.2917 49.0312 36.6595 47.7025 36.0588L41.1272 33.0833C41.2974 32.6341 41.1006 32.1289 40.6713 31.9133L36.9194 30.0383C36.7532 29.9551 36.5693 29.9245 36.3921 29.9449C36.2149 29.9654 36.0444 30.0367 35.9014 30.1555L34.6288 31.2248V29.0001C34.6288 27.4568 35.8632 26.1839 37.4376 26.1839H41.1895V29.0001C41.1899 29.8338 42.1967 30.2526 42.788 29.6647L51.2236 21.2218C51.5871 20.8561 51.5871 20.2654 51.2236 19.8997L42.788 11.4641C42.6088 11.2836 42.3647 11.1841 42.1105 11.1876C41.598 11.1972 41.1874 11.6162 41.1895 12.1287V14.9449L37.4376 14.9375C36.4753 14.9373 35.5373 15.0354 34.6306 15.2176L34.6271 11.182H37.4432C37.9558 11.1841 38.375 10.7735 38.3844 10.261C38.3879 10.0067 38.2883 9.76267 38.1079 9.58348L29.6723 1.14777C29.4894 0.966073 29.2485 0.874939 29.0094 0.874939C28.7702 0.874939 28.5311 0.966073 28.3483 1.14777ZM14.9321 14.3845V15.8786C14.9302 16.3992 15.3527 16.8218 15.8733 16.8198L20.559 16.8141C23.158 16.8137 25.5677 17.6176 27.5444 18.9967C25.7367 20.7867 24.4119 23.0466 23.7853 25.6014C22.946 24.7895 21.8191 24.316 20.559 24.316H15.8733C15.3554 24.314 14.934 24.7319 14.9321 25.2498V26.7366L8.75965 20.5641L14.9321 14.3845ZM43.0645 14.3845L49.2388 20.5643L43.0645 26.7368V25.2499C43.0626 24.732 42.6412 24.3141 42.1233 24.3161H37.4376C34.8569 24.3161 32.7538 26.3863 32.7538 28.9999V32.8012L30.5803 34.6268H27.4236L25.252 32.8012V28.9999C25.252 22.2318 30.7005 16.813 37.4376 16.8143L42.1233 16.8199C42.644 16.8219 43.0665 16.3994 43.0645 15.8787V14.3845ZM3.70595 14.9301C2.85643 14.9103 2.42076 15.9401 3.02662 16.536L3.96046 17.4771C4.84526 18.4022 6.21373 17.0356 5.28981 16.1496L4.34864 15.2139C4.17927 15.0396 3.94887 14.9378 3.70595 14.9301ZM54.2962 14.9301C54.0532 14.9379 53.8228 15.0396 53.6534 15.2139L52.7123 16.1496C51.7883 17.0356 53.1568 18.4023 54.0416 17.4771L54.9755 16.536C55.5813 15.9402 55.1457 14.9103 54.2962 14.9301ZM55.2135 19.6231C53.9354 19.5948 53.9354 21.5265 55.2135 21.4981H56.1895C57.4478 21.4981 57.4263 19.6231 56.1895 19.6231H55.2135ZM1.81264 19.625C0.562292 19.625 0.562292 21.5 1.81264 21.5H2.79774C4.04808 21.5 4.04808 19.625 2.79774 19.625H1.81264ZM4.63246 23.3622C4.37851 23.3637 4.13604 23.468 3.96046 23.6515L3.02662 24.5853C2.10418 25.4664 3.46247 26.8322 4.34864 25.9147L5.28981 24.9735C5.86237 24.4179 5.52345 23.4465 4.7295 23.3677C4.69726 23.3642 4.66488 23.3622 4.63246 23.3622ZM53.3696 23.3622C53.3374 23.3623 53.3048 23.3639 53.2726 23.3675C52.4786 23.4464 52.1397 24.4177 52.7123 24.9734L53.6534 25.9145C54.5396 26.8321 55.8979 25.4662 54.9755 24.5852L54.0416 23.6513C53.8661 23.4678 53.6236 23.3636 53.3696 23.3622ZM21.3665 31.9901L25.7756 35.6925L23.3934 38.7101L19.1729 33.0832L21.3665 31.9901ZM36.6356 31.9901L38.8292 33.0832L34.6087 38.7101L32.2283 35.6925L36.6356 31.9901ZM17.9918 34.6341L22.6262 40.8139C22.9949 41.3075 23.7311 41.3174 24.113 40.8341L25.1146 39.5652L26.1199 40.5686L23.5253 55.25H8.88783C7.73158 55.25 6.55137 54.7766 5.69081 53.9555C4.87262 53.1747 4.46562 52.196 4.68007 51.1466L6.47999 42.3301C6.72601 41.1262 7.24397 40.2889 8.00343 39.5963C8.76289 38.9037 9.8089 38.3417 11.0759 37.7689L17.9918 34.6341ZM40.0103 34.6341L46.9262 37.7689C48.1932 38.3417 49.2392 38.9037 49.9987 39.5963C50.7581 40.2889 51.2761 41.1261 51.5221 42.3301L53.322 51.1466C53.5365 52.196 53.1295 53.1747 52.3113 53.9554C51.4507 54.7766 50.2705 55.25 49.1143 55.25H34.4768L31.884 40.5686L32.8875 39.5652L33.889 40.8341C34.2709 41.3174 35.0072 41.3075 35.3759 40.8139L40.0103 34.6341ZM27.5335 36.5018H30.4705L31.7156 38.0802L29.002 40.7993L26.2883 38.0802L27.5335 36.5018ZM27.7404 42.1891L28.3373 42.786C28.5205 42.9702 28.7612 43.0625 29.002 43.0625C29.2426 43.0625 29.4833 42.9702 29.6666 42.786L30.2635 42.1891L32.5725 55.25H25.4314L27.7404 42.1891ZM38.3788 44.9393C37.8603 44.9363 37.4379 45.3547 37.4358 45.8732V49.6231C37.4338 50.1445 37.8575 50.5673 38.3788 50.5643H47.7483C48.2689 50.5663 48.6914 50.1438 48.6895 49.6231V45.8731C48.6874 45.3554 48.266 44.9373 47.7483 44.9393L38.3788 44.9393Z" fill="#1DB1E0"/>
</svg>
