<svg width="60" height="60" viewBox="0 0 60 60" fill="none" xmlns="http://www.w3.org/2000/svg">
<g clip-path="url(#clip0_18_242)">
<path d="M30.0578 11.3007C33.1788 11.3007 35.7073 8.77043 35.7073 5.65219C35.7073 2.52937 33.1788 0 30.0578 0C26.9351 0 24.4075 2.52937 24.4075 5.65219C24.4075 8.77031 26.9351 11.3007 30.0578 11.3007Z" fill="#476F94"/>
<path d="M37.6435 14.853L30.0579 22.4387L22.4244 14.8062C20.6952 15.8815 19.3292 17.8425 19.3292 19.695V38.6863C19.3292 40.0559 20.4385 41.1652 21.8081 41.1652C22.4805 41.1652 21.8081 41.1652 23.5374 41.1652L24.4802 57.3621C24.4802 58.8191 25.6612 60.0001 27.1191 60.0001C27.7327 60.0001 28.8676 60.0001 30 60.0001C31.1332 60.0001 32.2664 60.0001 32.8817 60.0001C34.3386 60.0001 35.5188 58.8191 35.5188 57.3621L36.4624 41.1652C38.1917 41.1652 37.5174 41.1652 38.1917 41.1652C39.5604 41.1652 40.6697 40.0559 40.6697 38.6863V19.6949C40.6698 17.8682 39.3416 15.9375 37.6435 14.853Z" fill="url(#paint0_linear_18_242)"/>
<path d="M28.3683 19.4217L30.0543 21.1077L31.618 19.545V16.5023H28.3683V19.4217Z" fill="url(#paint1_linear_18_242)"/>
<path d="M31.615 13.3344H28.37V15.4141H31.615V13.3344Z" fill="url(#paint2_linear_18_242)"/>
<path d="M47.8958 17.4708C50.6239 17.4708 52.8296 15.2613 52.8296 12.536C52.8296 9.8107 50.6239 7.60125 47.8958 7.60125C45.1713 7.60125 42.9629 9.81059 42.9629 12.536C42.9629 15.2614 45.1713 17.4708 47.8958 17.4708Z" fill="#476F94"/>
<path d="M53.6795 20.1309L47.7965 26.013L43.9148 22.1314V38.6862C43.9148 40.2783 43.2563 41.7114 42.2023 42.7489V43.5519L43.0255 57.6957C43.0255 58.9679 44.0585 59.9999 45.3297 59.9999C45.8678 59.9999 46.8565 59.9999 47.8463 59.9999C48.8368 59.9999 49.8266 59.9999 50.3627 59.9999C51.6357 59.9999 52.6669 58.9679 52.6669 57.6957L53.4901 43.5519C55.0006 43.5519 54.4127 43.5519 55.0006 43.5519C56.1963 43.5519 57.1648 42.5834 57.1648 41.3858V24.8017C57.1647 22.9114 55.5394 20.8962 53.6795 20.1309Z" fill="url(#paint3_linear_18_242)"/>
<path d="M47.7991 24.6775L49.3444 23.1332V21.1316H46.3771V23.2555L47.7991 24.6775Z" fill="url(#paint4_linear_18_242)"/>
<path d="M49.3462 18.777H46.3762V20.142H49.3462V18.777Z" fill="url(#paint5_linear_18_242)"/>
<path d="M12.1042 17.4708C14.8287 17.4708 17.0371 15.2613 17.0371 12.536C17.0371 9.8107 14.8287 7.60125 12.1042 7.60125C9.37605 7.60125 7.17035 9.81059 7.17035 12.536C7.17035 15.2614 9.37605 17.4708 12.1042 17.4708Z" fill="#476F94"/>
<path d="M16.0851 22.1314L12.2035 26.013L6.32048 20.1309C4.46072 20.8962 2.83533 22.9114 2.83533 24.8018V41.3859C2.83533 42.5836 3.80388 43.552 4.99955 43.552C5.58724 43.552 4.99955 43.552 6.50986 43.552L7.33322 57.6959C7.33322 58.9681 8.36423 60 9.63724 60C10.1735 60 11.1633 60 12.1538 60C13.1436 60 14.1323 60 14.6704 60C15.9417 60 16.9746 58.9681 16.9746 57.6959L17.7978 43.552V42.7491C16.7438 41.7115 16.0852 40.2784 16.0852 38.6863V22.1314H16.0851Z" fill="url(#paint6_linear_18_242)"/>
<path d="M12.2007 24.6775L13.6228 23.2555V21.1316H10.6555V23.1332L12.2007 24.6775Z" fill="url(#paint7_linear_18_242)"/>
<path d="M13.6237 18.777H10.6536V20.142H13.6237V18.777Z" fill="url(#paint8_linear_18_242)"/>
</g>
<defs>
<linearGradient id="paint0_linear_18_242" x1="29.9994" y1="14.8062" x2="29.9994" y2="60.0001" gradientUnits="userSpaceOnUse">
<stop stop-color="#001BAB"/>
<stop offset="1" stop-color="#591B00"/>
</linearGradient>
<linearGradient id="paint1_linear_18_242" x1="29.9931" y1="16.5023" x2="29.9931" y2="21.1077" gradientUnits="userSpaceOnUse">
<stop stop-color="#00116A"/>
<stop offset="1" stop-color="#000625"/>
</linearGradient>
<linearGradient id="paint2_linear_18_242" x1="29.9925" y1="13.3344" x2="29.9925" y2="15.4141" gradientUnits="userSpaceOnUse">
<stop stop-color="#00577D"/>
<stop offset="1" stop-color="#001848"/>
</linearGradient>
<linearGradient id="paint3_linear_18_242" x1="49.6835" y1="20.1309" x2="49.6835" y2="59.9999" gradientUnits="userSpaceOnUse">
<stop stop-color="#001BAB"/>
<stop offset="1" stop-color="#591B00"/>
</linearGradient>
<linearGradient id="paint4_linear_18_242" x1="47.8608" y1="21.1316" x2="47.8608" y2="24.6775" gradientUnits="userSpaceOnUse">
<stop stop-color="#00116A"/>
<stop offset="1" stop-color="#000625"/>
</linearGradient>
<linearGradient id="paint5_linear_18_242" x1="47.8612" y1="18.777" x2="47.8612" y2="20.142" gradientUnits="userSpaceOnUse">
<stop stop-color="#00577D"/>
<stop offset="1" stop-color="#001848"/>
</linearGradient>
<linearGradient id="paint6_linear_18_242" x1="10.3166" y1="20.1309" x2="10.3166" y2="60" gradientUnits="userSpaceOnUse">
<stop stop-color="#001BAB"/>
<stop offset="1" stop-color="#591B00"/>
</linearGradient>
<linearGradient id="paint7_linear_18_242" x1="12.1391" y1="21.1316" x2="12.1391" y2="24.6775" gradientUnits="userSpaceOnUse">
<stop stop-color="#00116A"/>
<stop offset="1" stop-color="#000625"/>
</linearGradient>
<linearGradient id="paint8_linear_18_242" x1="12.1387" y1="18.777" x2="12.1387" y2="20.142" gradientUnits="userSpaceOnUse">
<stop stop-color="#00577D"/>
<stop offset="1" stop-color="#001848"/>
</linearGradient>
<clipPath id="clip0_18_242">
<rect width="60" height="60" fill="white"/>
</clipPath>
</defs>
</svg>
