<svg width="40" height="40" viewBox="0 0 40 40" fill="none" xmlns="http://www.w3.org/2000/svg">
<g clip-path="url(#clip0_68_221)">
<path d="M21.6666 33.3333C23.8759 33.3307 25.994 32.4519 27.5562 30.8896C29.1185 29.3274 29.9973 27.2093 29.9999 25V10.405C30.0025 9.52893 29.8312 8.66106 29.4959 7.8517C29.1606 7.04233 28.668 6.30757 28.0466 5.69L24.3099 1.95333C23.6924 1.33196 22.9576 0.839337 22.1482 0.504033C21.3389 0.168729 20.471 -0.00259282 19.5949 -5.81255e-07H11.6666C9.45726 0.00264585 7.33918 0.881469 5.77695 2.4437C4.21472 4.00593 3.3359 6.12401 3.33325 8.33333V25C3.3359 27.2093 4.21472 29.3274 5.77695 30.8896C7.33918 32.4519 9.45726 33.3307 11.6666 33.3333H21.6666ZM6.66659 25V8.33333C6.66659 7.00725 7.19337 5.73548 8.13105 4.7978C9.06873 3.86012 10.3405 3.33333 11.6666 3.33333C11.6666 3.33333 19.8649 3.35667 19.9999 3.37333V6.66667C19.9999 7.55072 20.3511 8.39857 20.9762 9.02369C21.6014 9.64881 22.4492 10 23.3333 10H26.6266C26.6433 10.135 26.6666 25 26.6666 25C26.6666 26.3261 26.1398 27.5979 25.2021 28.5355C24.2644 29.4732 22.9927 30 21.6666 30H11.6666C10.3405 30 9.06873 29.4732 8.13105 28.5355C7.19337 27.5979 6.66659 26.3261 6.66659 25ZM36.6666 13.3333V31.6667C36.6639 33.876 35.7851 35.9941 34.2229 37.5563C32.6607 39.1185 30.5426 39.9974 28.3333 40H13.3333C12.8912 40 12.4673 39.8244 12.1547 39.5118C11.8422 39.1993 11.6666 38.7754 11.6666 38.3333C11.6666 37.8913 11.8422 37.4674 12.1547 37.1548C12.4673 36.8423 12.8912 36.6667 13.3333 36.6667H28.3333C29.6593 36.6667 30.9311 36.1399 31.8688 35.2022C32.8065 34.2645 33.3333 32.9927 33.3333 31.6667V13.3333C33.3333 12.8913 33.5088 12.4674 33.8214 12.1548C34.134 11.8423 34.5579 11.6667 34.9999 11.6667C35.4419 11.6667 35.8659 11.8423 36.1784 12.1548C36.491 12.4674 36.6666 12.8913 36.6666 13.3333Z" fill="#EFE2E2" fill-opacity="0.5"/>
</g>
<defs>
<clipPath id="clip0_68_221">
<rect width="40" height="40" fill="white"/>
</clipPath>
</defs>
</svg>
