<svg width="60" height="60" viewBox="0 0 60 60" fill="none" xmlns="http://www.w3.org/2000/svg">
<g clip-path="url(#clip0_47_228)">
<path d="M57.0275 0.207495C50.2 0.954995 29.4175 3.22999 13.165 19.53C9.31749 23.3875 7.25999 28.73 7.52249 34.1825C7.71499 38.1875 9.08499 41.915 11.455 45.01L0.172485 56.295L3.70749 59.83L14.9725 48.5625C18.345 51.1975 22.425 52.49 26.555 52.4875C31.905 52.4875 37.33 50.32 41.3725 46.0975C51.675 35.3425 58.0425 20.42 59.7875 2.94L60.095 -0.130005L57.0275 0.207495ZM37.76 42.6425C32.5225 48.11 24.27 49.0575 18.5425 44.9925L26.0325 37.5025H42.1C40.75 39.315 39.3 41.0325 37.7575 42.645L37.76 42.6425ZM31.035 32.5L38.535 25H49.2225C48.1075 27.625 46.8425 30.1275 45.4325 32.5H31.035ZM51.12 20H36.465L15.0375 41.43C13.525 39.245 12.65 36.68 12.5175 33.94C12.3225 29.89 13.85 25.9225 16.705 23.0575C29.7575 9.96749 46.1825 6.6525 54.4475 5.5475C53.7575 10.6375 52.64 15.47 51.12 19.9975V20Z" fill="url(#paint0_linear_47_228)"/>
</g>
<defs>
<linearGradient id="paint0_linear_47_228" x1="30.1337" y1="-0.130005" x2="30.1337" y2="59.83" gradientUnits="userSpaceOnUse">
<stop stop-color="#2E9000"/>
<stop offset="1" stop-color="#184C00"/>
</linearGradient>
<clipPath id="clip0_47_228">
<rect width="60" height="60" fill="white"/>
</clipPath>
</defs>
</svg>
