<svg width="40" height="37" viewBox="0 0 40 37" fill="none" xmlns="http://www.w3.org/2000/svg">
<path d="M8.72924 13.7978L3.13296 16.0791C2.95633 16.1508 2.77161 16.1863 2.58876 16.1863C2.22679 16.1863 1.87166 16.0484 1.6036 15.7894C1.20058 15.3992 1.08303 14.818 1.30444 14.3091L3.66038 8.88957L8.72924 13.7978ZM11.273 10.3289L7.24341 6.42702C6.84723 6.04279 6.28126 5.87657 5.73208 5.98076C5.18228 6.08555 4.7239 6.44569 4.50622 6.94675L4.18219 7.69232L9.96754 13.2943L10.7375 12.9806C11.2543 12.7698 11.6269 12.3259 11.7345 11.7936C11.8421 11.2606 11.6698 10.7132 11.2736 10.3295L11.273 10.3289ZM11.0168 6.3138C11.4708 5.73444 11.722 5.11896 11.7643 4.48239C11.8713 2.85815 10.6479 1.9036 10.5963 1.86325C10.3289 1.6597 9.94266 1.70246 9.72809 1.96082C9.51414 2.21857 9.55705 2.59678 9.82138 2.80576C9.85247 2.83045 10.5876 3.42305 10.5229 4.4053C10.4968 4.80097 10.3295 5.19785 10.0266 5.58509C9.81889 5.85007 9.87238 6.22768 10.146 6.42882C10.2586 6.51133 10.3905 6.55108 10.5217 6.55108C10.7095 6.55108 10.8955 6.46857 11.0174 6.31259L11.0168 6.3138ZM15.8555 10.0555C16.1366 9.86399 16.2038 9.4882 16.0054 9.21598C15.7734 8.8974 15.1434 8.3584 14.2534 8.3584C13.7707 8.3584 13.3173 8.50293 12.9423 8.77695C12.668 8.9769 12.6139 9.3551 12.8204 9.62009C13.0275 9.88507 13.4169 9.93867 13.6918 9.73752C13.851 9.62129 14.04 9.56227 14.2534 9.56227C14.7068 9.56227 14.9748 9.8923 14.9935 9.91579C15.1148 10.0784 15.3045 10.1645 15.4979 10.1645C15.6217 10.1645 15.7467 10.1284 15.8555 10.0543V10.0555ZM14.2534 2.63773C14.2534 3.13639 14.6713 3.54109 15.1863 3.54109C15.7013 3.54109 16.1192 3.13639 16.1192 2.63773C16.1192 2.13908 15.7013 1.73438 15.1863 1.73438C14.6713 1.73438 14.2534 2.13908 14.2534 2.63773ZM13.0095 5.64893C13.0095 6.14758 13.4274 6.55228 13.9424 6.55228C14.4574 6.55228 14.8753 6.14758 14.8753 5.64893C14.8753 5.15027 14.4574 4.74557 13.9424 4.74557C13.4274 4.74557 13.0095 5.15027 13.0095 5.64893ZM6.16806 3.23937C6.16806 3.73802 6.58601 4.14273 7.10098 4.14273C7.61596 4.14273 8.0339 3.73802 8.0339 3.23937C8.0339 2.74072 7.61596 2.33601 7.10098 2.33601C6.58601 2.33601 6.16806 2.74072 6.16806 3.23937ZM13.6314 12.8752C13.6314 13.3738 14.0494 13.7785 14.5643 13.7785C15.0793 13.7785 15.4973 13.3738 15.4973 12.8752C15.4973 12.3765 15.0793 11.9718 14.5643 11.9718C14.0494 11.9718 13.6314 12.3765 13.6314 12.8752ZM1.81444 3.84161C1.81444 4.34026 2.23239 4.74497 2.74736 4.74497C3.26233 4.74497 3.68028 4.34026 3.68028 3.84161C3.68028 3.34295 3.26233 2.93825 2.74736 2.93825C2.23239 2.93825 1.81444 3.34295 1.81444 3.84161ZM10.5217 15.2841C10.5217 15.7828 10.9396 16.1875 11.4546 16.1875C11.9696 16.1875 12.3875 15.7828 12.3875 15.2841C12.3875 14.7855 11.9696 14.3808 11.4546 14.3808C10.9396 14.3808 10.5217 14.7855 10.5217 15.2841Z" fill="url(#paint0_linear_18_9)"/>
<g clip-path="url(#clip0_18_9)">
<path d="M28.184 14.1159C28.799 14.1159 29.4002 13.9393 29.9116 13.6084C30.4229 13.2776 30.8215 12.8073 31.0568 12.2571C31.2921 11.7069 31.3537 11.1015 31.2337 10.5174C31.1138 9.9333 30.8176 9.39678 30.3828 8.97567C29.9479 8.55457 29.3938 8.26779 28.7907 8.15161C28.1875 8.03543 27.5623 8.09505 26.9941 8.32296C26.4259 8.55086 25.9403 8.93679 25.5986 9.43196C25.257 9.92713 25.0746 10.5093 25.0746 11.1048C25.0746 11.9034 25.4022 12.6693 25.9853 13.234C26.5685 13.7987 27.3594 14.1159 28.184 14.1159ZM37.5124 21.3424H33.9427C33.7286 21.3416 33.5183 21.2876 33.3318 21.1855C33.1454 21.0835 32.9892 20.9368 32.8781 20.7595L30.5845 17.0703C30.2514 16.5377 29.7824 16.097 29.2226 15.7905C28.6628 15.4841 28.0311 15.3221 27.388 15.3203H19.1492C18.4559 15.318 17.7757 15.5038 17.1859 15.8568C16.596 16.2097 16.1201 16.7157 15.8122 17.3173L14.0112 20.8101C13.9381 20.9517 13.8946 21.1058 13.8831 21.2636C13.8716 21.4214 13.8923 21.5799 13.9441 21.73C14.0486 22.0331 14.2731 22.2836 14.5684 22.4264C14.8636 22.5692 15.2053 22.5926 15.5184 22.4914C15.6733 22.4413 15.8166 22.3621 15.94 22.2584C16.0634 22.1547 16.1645 22.0284 16.2375 21.8869L18.0373 18.3952C18.1398 18.1947 18.2983 18.0259 18.4949 17.9082C18.6914 17.7905 18.9181 17.7285 19.1492 17.7292H21.9079L19.7263 22.8757C19.3936 23.6617 19.3574 24.5361 19.6242 25.3453C19.891 26.1546 20.4437 26.8469 21.1853 27.3008L26.3047 30.4323V35.7956C26.3047 36.1168 26.4365 36.4248 26.671 36.6519C26.9055 36.879 27.2236 37.0066 27.5553 37.0066C27.887 37.0066 28.2051 36.879 28.4396 36.6519C28.6742 36.4248 28.8059 36.1168 28.8059 35.7956V29.7734C28.8035 29.5694 28.7481 29.3693 28.6449 29.1915C28.5416 29.0136 28.3938 28.8638 28.2151 28.7557L25.684 27.2056L29.0423 19.2672L30.7425 22.0013C31.0761 22.5343 31.5457 22.9753 32.1061 23.2818C32.6666 23.5883 33.2991 23.75 33.9427 23.7513H37.5124C37.8423 23.7513 38.1586 23.6244 38.3919 23.3985C38.6251 23.1727 38.7562 22.8663 38.7562 22.5469C38.7562 22.2274 38.6251 21.9211 38.3919 21.6952C38.1586 21.4693 37.8423 21.3424 37.5124 21.3424ZM20.6368 29.9107C20.3617 30.5826 19.8839 31.1587 19.2659 31.5639C18.6478 31.969 17.918 32.1845 17.1716 32.1823H13.8806C13.5507 32.1823 13.2343 32.0554 13.0011 31.8295C12.7678 31.6037 12.6368 31.2973 12.6368 30.9779C12.6368 30.6584 12.7678 30.3521 13.0011 30.1262C13.2343 29.9003 13.5507 29.7734 13.8806 29.7734H17.1716C17.4204 29.7743 17.6636 29.7024 17.8695 29.5673C18.0755 29.4321 18.2345 29.2399 18.3258 29.0159C18.4484 28.7191 18.6876 28.4816 18.991 28.3557C19.2943 28.2298 19.6369 28.2257 19.9434 28.3444C20.2498 28.4631 20.495 28.6948 20.6251 28.9885C20.7551 29.2822 20.7593 29.614 20.6368 29.9107Z" fill="url(#paint1_linear_18_9)"/>
</g>
<defs>
<linearGradient id="paint0_linear_18_9" x1="8.65672" y1="1.73437" x2="8.65672" y2="16.1875" gradientUnits="userSpaceOnUse">
<stop stop-color="#E14343"/>
<stop offset="1" stop-color="#E1DB43"/>
</linearGradient>
<linearGradient id="paint1_linear_18_9" x1="25.6965" y1="8.09375" x2="25.6965" y2="37.0066" gradientUnits="userSpaceOnUse">
<stop stop-color="#B5D4DE"/>
<stop offset="1" stop-color="#C5E2D7" stop-opacity="0.25"/>
</linearGradient>
<clipPath id="clip0_18_9">
<rect width="29.8507" height="28.9062" fill="white" transform="translate(10.1492 8.09375)"/>
</clipPath>
</defs>
</svg>
