<svg width="60" height="60" viewBox="0 0 60 60" fill="none" xmlns="http://www.w3.org/2000/svg">
<g clip-path="url(#clip0_18_222)">
<g filter="url(#filter0_d_18_222)">
<path d="M29.9999 12.5C33.4524 12.5 36.2499 15.2975 36.2499 18.75C36.2499 22.2025 33.4524 25 29.9999 25C26.5474 25 23.7499 22.2025 23.7499 18.75C23.7499 15.2975 26.5474 12.5 29.9999 12.5ZM39.9999 35V42.5C39.9999 44.7075 39.0224 46.675 37.4999 48.05V57.5C37.4999 58.8825 36.3799 60 34.9999 60C33.6199 60 32.4999 58.8825 32.4999 57.5V50H27.4999V57.5C27.4999 58.8825 26.3799 60 24.9999 60C23.6199 60 22.4999 58.8825 22.4999 57.5V48.05C20.9774 46.6775 19.9999 44.7075 19.9999 42.5V35C19.9999 30.865 23.3649 27.5 27.4999 27.5H32.4999C36.6349 27.5 39.9999 30.865 39.9999 35ZM47.4999 12.5C50.9524 12.5 53.7499 9.7025 53.7499 6.25C53.7499 2.7975 50.9524 0 47.4999 0C44.0474 0 41.2499 2.7975 41.2499 6.25C41.2499 9.7025 44.0474 12.5 47.4999 12.5ZM59.9424 41.57L57.7524 24.0525C57.1099 18.8925 52.7024 15 47.4999 15C45.0899 15 42.8724 15.86 41.0999 17.27C41.1649 17.76 41.2499 18.2425 41.2499 18.75C41.2499 20.9275 40.5999 22.9475 39.5249 24.67C42.8249 26.9225 44.9999 30.71 44.9999 35V42.5C44.9999 45.1925 44.1074 47.8075 42.4999 49.9525V50H49.9999V57.5C49.9999 58.88 51.1174 60 52.4999 60C53.8824 60 54.9999 58.88 54.9999 57.5V49.53C56.1849 49.1075 57.2724 48.4275 58.1224 47.465C59.5449 45.8525 60.2074 43.7025 59.9424 41.57ZM18.7499 6.25C18.7499 2.7975 15.9499 0 12.4999 0C9.04992 0 6.24992 2.7975 6.24992 6.25C6.24992 9.7025 9.04742 12.5 12.4999 12.5C15.9524 12.5 18.7499 9.7025 18.7499 6.25ZM1.87742 47.4625C2.72742 48.425 3.81492 49.1075 4.99992 49.5275V57.4975C4.99992 58.8775 6.11742 59.9975 7.49992 59.9975C8.88242 59.9975 9.99992 58.8775 9.99992 57.4975V49.9975H17.4999V49.95C15.8924 47.805 14.9999 45.19 14.9999 42.4975V34.9975C14.9999 30.7075 17.1749 26.92 20.4749 24.6675C19.3999 22.9425 18.7499 20.925 18.7499 18.7475C18.7499 18.24 18.8349 17.7575 18.8999 17.2675C17.1274 15.86 14.9099 14.9975 12.4999 14.9975C7.29742 14.9975 2.88992 18.89 2.24742 24.05L0.0574184 41.57C-0.207582 43.705 0.452418 45.85 1.87742 47.4625Z" fill="url(#paint0_linear_18_222)"/>
</g>
</g>
<defs>
<filter id="filter0_d_18_222" x="0" y="0" width="67.9997" height="68" filterUnits="userSpaceOnUse" color-interpolation-filters="sRGB">
<feFlood flood-opacity="0" result="BackgroundImageFix"/>
<feColorMatrix in="SourceAlpha" type="matrix" values="0 0 0 0 0 0 0 0 0 0 0 0 0 0 0 0 0 0 127 0" result="hardAlpha"/>
<feOffset dx="4" dy="4"/>
<feGaussianBlur stdDeviation="2"/>
<feComposite in2="hardAlpha" operator="out"/>
<feColorMatrix type="matrix" values="0 0 0 0 0 0 0 0 0 0 0 0 0 0 0 0 0 0 0.25 0"/>
<feBlend mode="normal" in2="BackgroundImageFix" result="effect1_dropShadow_18_222"/>
<feBlend mode="normal" in="SourceGraphic" in2="effect1_dropShadow_18_222" result="shape"/>
</filter>
<linearGradient id="paint0_linear_18_222" x1="29.9998" y1="0" x2="29.9998" y2="60" gradientUnits="userSpaceOnUse">
<stop stop-color="#F3982E"/>
<stop offset="1" stop-color="#7F1931"/>
</linearGradient>
<clipPath id="clip0_18_222">
<rect width="60" height="60" fill="white"/>
</clipPath>
</defs>
</svg>
