<svg width="169" height="152" viewBox="0 0 169 152" fill="none" xmlns="http://www.w3.org/2000/svg">
<g filter="url(#filter0_i_12_599)">
<path d="M150.058 106.586C148.966 106.586 147.639 107.12 146.66 107.61C144.698 106.639 142.824 106.376 140.971 106.818C141.811 96.6272 148.222 96.4935 148.291 96.4935C149.653 96.4935 150.763 97.6263 150.765 99.0165C149.401 99.0165 148.291 100.147 148.291 101.54C148.291 102.932 149.398 104.063 150.763 104.063C153.489 104.063 155.705 101.799 155.705 99.0165C155.705 94.8434 152.379 91.4474 148.291 91.4474C145.521 91.4474 141.163 93.0193 138.43 97.9139C136.967 95.2143 134.869 93.1278 132.096 91.7149C130.872 91.0892 129.389 91.5988 128.779 92.8427C128.169 94.089 128.663 95.6054 129.884 96.2286C133.46 98.0527 135.42 101.532 135.842 106.818C134.026 106.386 132.195 106.623 130.274 107.549C129.202 106.911 128.018 106.588 126.75 106.588C119.808 106.586 108.748 116.978 108.748 129.293C108.748 141.608 119.832 152 126.794 152C127.926 152 128.994 151.733 129.983 151.203C131.915 152.073 133.841 152.189 135.82 151.533C137.538 152.154 139.273 152.154 140.993 151.533C142.975 152.189 144.9 152.073 146.83 151.203C147.819 151.733 148.887 152 150.019 152C156.981 152 168.065 141.608 168.065 129.293C168.065 116.978 157.003 106.586 150.058 106.586ZM142.32 123.883L145.311 117.778C145.669 117.044 146.361 116.678 147.055 116.678C147.75 116.678 148.439 117.044 148.8 117.778L151.791 123.883C152.438 125.206 151.497 126.765 150.046 126.765H144.065C142.617 126.765 141.673 125.208 142.32 123.883ZM125.02 123.888L128.01 117.783C128.369 117.049 129.061 116.683 129.755 116.683C130.45 116.683 131.139 117.049 131.5 117.783L134.491 123.888C135.138 125.213 134.196 126.77 132.746 126.77H126.765C125.317 126.77 124.372 125.213 125.02 123.888ZM155.231 133.077C153.58 134.589 148.336 137.566 145.82 138.797V138.123C145.82 136.731 144.712 135.6 143.348 135.6C141.984 135.6 140.877 136.731 140.877 138.123V140.414C140.071 140.551 139.251 140.646 138.405 140.646C129.755 140.646 124.696 135.956 121.59 133.108C120.495 132.103 121.407 130.289 122.85 130.587C124.249 130.877 129.024 132.462 130.991 132.681V134.339C130.991 135.732 132.098 136.862 133.462 136.862C134.827 136.862 135.934 135.732 135.934 134.339V133.029C136.732 133.057 137.548 133.077 138.405 133.077C143.766 133.077 151.067 131.177 153.993 130.569C155.409 130.277 156.306 132.093 155.231 133.077Z" fill="#EB5210"/>
</g>
<path d="M165.364 54.374L153.829 37.0732H160.42L150.534 22.2439H155.954L142.648 1.73011C141.535 0.655079 140.049 0.054184 138.502 0.054184C136.955 0.054184 135.468 0.655079 134.356 1.73011L120.972 22.2439H126.469L116.583 37.0732H123.172L111.64 54.374H136.031V59.3171H140.974V54.374H165.364ZM140.878 44.4878C140.389 44.4878 139.911 44.3429 139.505 44.0713C139.098 43.7997 138.782 43.4137 138.595 42.9621C138.408 42.5105 138.359 42.0135 138.454 41.5341C138.549 41.0547 138.785 40.6143 139.13 40.2686C139.476 39.923 139.916 39.6876 140.396 39.5922C140.875 39.4969 141.372 39.5458 141.824 39.7329C142.275 39.9199 142.661 40.2367 142.933 40.6432C143.205 41.0496 143.35 41.5275 143.35 42.0163C143.35 42.6718 143.089 43.3004 142.626 43.7639C142.162 44.2274 141.533 44.4878 140.878 44.4878ZM148.293 44.4878C148.781 44.4878 149.259 44.6328 149.666 44.9044C150.072 45.1759 150.389 45.5619 150.576 46.0136C150.763 46.4652 150.812 46.9621 150.717 47.4416C150.621 47.921 150.386 48.3614 150.04 48.707C149.695 49.0527 149.254 49.2881 148.775 49.3834C148.295 49.4788 147.798 49.4299 147.347 49.2428C146.895 49.0557 146.509 48.7389 146.238 48.3325C145.966 47.9261 145.821 47.4482 145.821 46.9594C145.821 46.3039 146.081 45.6752 146.545 45.2117C147.008 44.7482 147.637 44.4878 148.293 44.4878ZM145.821 27.187C146.31 27.187 146.788 27.332 147.194 27.6035C147.601 27.8751 147.917 28.2611 148.104 28.7127C148.292 29.1644 148.34 29.6613 148.245 30.1407C148.15 30.6202 147.914 31.0606 147.569 31.4062C147.223 31.7519 146.783 31.9873 146.303 32.0826C145.824 32.178 145.327 32.129 144.875 31.942C144.424 31.7549 144.038 31.4381 143.766 31.0317C143.494 30.6252 143.35 30.1474 143.35 29.6586C143.35 29.0031 143.61 28.3744 144.073 27.9109C144.537 27.4474 145.166 27.187 145.821 27.187ZM140.878 12.3578C141.367 12.3578 141.845 12.5027 142.251 12.7743C142.658 13.0459 142.974 13.4319 143.161 13.8835C143.348 14.3351 143.397 14.832 143.302 15.3115C143.207 15.7909 142.971 16.2313 142.626 16.5769C142.28 16.9226 141.84 17.158 141.36 17.2534C140.881 17.3487 140.384 17.2998 139.932 17.1127C139.481 16.9256 139.095 16.6089 138.823 16.2024C138.551 15.796 138.406 15.3181 138.406 14.8293C138.406 14.1738 138.667 13.5452 139.13 13.0817C139.594 12.6181 140.222 12.3578 140.878 12.3578ZM128.52 49.4309C128.031 49.4309 127.554 49.286 127.147 49.0144C126.741 48.7428 126.424 48.3568 126.237 47.9052C126.05 47.4536 126.001 46.9566 126.096 46.4772C126.192 45.9978 126.427 45.5574 126.773 45.2117C127.118 44.8661 127.559 44.6307 128.038 44.5353C128.518 44.44 129.014 44.4889 129.466 44.676C129.918 44.863 130.304 45.1798 130.575 45.5863C130.847 45.9927 130.992 46.4706 130.992 46.9594C130.992 47.6149 130.731 48.2435 130.268 48.707C129.804 49.1705 129.176 49.4309 128.52 49.4309ZM130.992 37.0732C130.503 37.0732 130.025 36.9282 129.619 36.6567C129.212 36.3851 128.895 35.9991 128.708 35.5475C128.521 35.0959 128.472 34.5989 128.568 34.1195C128.663 33.64 128.899 33.1997 129.244 32.854C129.59 32.5084 130.03 32.273 130.51 32.1776C130.989 32.0822 131.486 32.1312 131.938 32.3182C132.389 32.5053 132.775 32.8221 133.047 33.2285C133.318 33.635 133.463 34.1128 133.463 34.6017C133.463 35.2571 133.203 35.8858 132.739 36.3493C132.276 36.8128 131.647 37.0732 130.992 37.0732ZM133.463 24.7155C133.463 24.2267 133.608 23.7488 133.88 23.3424C134.151 22.9359 134.537 22.6191 134.989 22.4321C135.441 22.245 135.938 22.1961 136.417 22.2914C136.897 22.3868 137.337 22.6222 137.683 22.9678C138.028 23.3135 138.264 23.7539 138.359 24.2333C138.454 24.7127 138.405 25.2097 138.218 25.6613C138.031 26.1129 137.714 26.4989 137.308 26.7705C136.902 27.0421 136.424 27.187 135.935 27.187C135.279 27.187 134.651 26.9266 134.187 26.4631C133.724 25.9996 133.463 25.371 133.463 24.7155Z" fill="url(#paint0_linear_12_599)"/>
<g clip-path="url(#clip0_12_599)">
<path d="M53.6523 42.7175C52.5792 42.4107 51.602 41.8356 50.8128 41.0463C50.0236 40.2571 49.4484 39.2799 49.1416 38.2068C48.9802 37.6433 48.6398 37.1476 48.1718 36.7948C47.7038 36.442 47.1336 36.2511 46.5475 36.2511C45.9614 36.2511 45.3912 36.442 44.9231 36.7948C44.4551 37.1476 44.1147 37.6433 43.9534 38.2068C43.6465 39.2799 43.0714 40.2571 42.2822 41.0463C41.493 41.8356 40.5157 42.4107 39.4426 42.7175C38.8791 42.8789 38.3835 43.2193 38.0307 43.6873C37.6778 44.1553 37.487 44.7255 37.487 45.3116C37.487 45.8978 37.6778 46.4679 38.0307 46.936C38.3835 47.404 38.8791 47.7444 39.4426 47.9057C40.5157 48.2126 41.493 48.7877 42.2822 49.5769C43.0714 50.3661 43.6465 51.3434 43.9534 52.4165C44.1147 52.98 44.4551 53.4756 44.9231 53.8285C45.3912 54.1813 45.9614 54.3721 46.5475 54.3721C47.1336 54.3721 47.7038 54.1813 48.1718 53.8285C48.6398 53.4756 48.9802 52.98 49.1416 52.4165C49.4484 51.3434 50.0236 50.3661 50.8128 49.5769C51.602 48.7877 52.5792 48.2126 53.6523 47.9057C54.2158 47.7444 54.7115 47.404 55.0643 46.936C55.4171 46.4679 55.608 45.8978 55.608 45.3116C55.608 44.7255 55.4171 44.1553 55.0643 43.6873C54.7115 43.2193 54.2158 42.8789 53.6523 42.7175Z" fill="url(#paint1_linear_12_599)"/>
<path d="M35.5299 6.46823C34.4564 6.16173 33.4787 5.58672 32.6891 4.79749C31.8994 4.00826 31.3239 3.03083 31.0169 1.95746C30.8556 1.39397 30.5152 0.898335 30.0471 0.545499C29.5791 0.192664 29.0089 0.0018158 28.4228 0.0018158C27.8367 0.0018158 27.2665 0.192664 26.7985 0.545499C26.3305 0.898335 25.99 1.39397 25.8287 1.95746C25.5219 3.03056 24.9467 4.00782 24.1575 4.79703C23.3683 5.58624 22.3911 6.16139 21.3179 6.46823C20.7545 6.62955 20.2588 6.96996 19.906 7.43799C19.5532 7.90601 19.3623 8.4762 19.3623 9.06232C19.3623 9.64845 19.5532 10.2186 19.906 10.6867C20.2588 11.1547 20.7545 11.4951 21.3179 11.6564C22.3911 11.9633 23.3683 12.5384 24.1575 13.3276C24.9467 14.1168 25.5219 15.0941 25.8287 16.1672C25.99 16.7307 26.3305 17.2263 26.7985 17.5791C27.2665 17.932 27.8367 18.1228 28.4228 18.1228C29.0089 18.1228 29.5791 17.932 30.0471 17.5791C30.5152 17.2263 30.8556 16.7307 31.0169 16.1672C31.3237 15.0941 31.8989 14.1168 32.6881 13.3276C33.4773 12.5384 34.4546 11.9633 35.5277 11.6564C36.0912 11.4953 36.587 11.1551 36.9401 10.6873C37.2931 10.2194 37.4842 9.6493 37.4844 9.06318C37.4847 8.47705 37.2941 7.90678 36.9415 7.43861C36.5888 6.97043 36.0934 6.6298 35.5299 6.46823Z" fill="url(#paint2_linear_12_599)"/>
<path d="M3.19102 47.9057C4.26413 48.2126 5.24138 48.7877 6.03059 49.5769C6.8198 50.3661 7.39496 51.3434 7.70179 52.4165C7.86312 52.98 8.20353 53.4756 8.67155 53.8285C9.13958 54.1813 9.70976 54.3721 10.2959 54.3721C10.882 54.3721 11.4522 54.1813 11.9202 53.8285C12.3882 53.4756 12.7287 52.98 12.89 52.4165C13.1968 51.3434 13.772 50.3661 14.5612 49.5769C15.3504 48.7877 16.3276 48.2126 17.4008 47.9057C17.9642 47.7444 18.4599 47.404 18.8127 46.936C19.1655 46.4679 19.3564 45.8978 19.3564 45.3116C19.3564 44.7255 19.1655 44.1553 18.8127 43.6873C18.4599 43.2193 17.9642 42.8789 17.4008 42.7175C16.3276 42.4107 15.3504 41.8356 14.5612 41.0463C13.772 40.2571 13.1968 39.2799 12.89 38.2068C12.7287 37.6433 12.3882 37.1476 11.9202 36.7948C11.4522 36.442 10.882 36.2511 10.2959 36.2511C9.70976 36.2511 9.13958 36.442 8.67155 36.7948C8.20353 37.1476 7.86312 37.6433 7.70179 38.2068C7.39516 39.2796 6.82035 40.2567 6.03156 41.0459C5.24276 41.8351 4.26597 42.4104 3.19328 42.7175C2.62973 42.8786 2.13394 43.2188 1.7809 43.6867C1.42786 44.1546 1.23677 44.7247 1.23651 45.3108C1.23626 45.8969 1.42685 46.4672 1.77949 46.9354C2.13212 47.4035 2.6276 47.7442 3.19102 47.9057Z" fill="url(#paint3_linear_12_599)"/>
<path d="M13.6965 33.9837C15.5734 33.9837 17.0949 32.4622 17.0949 30.5854C17.0949 28.7085 15.5734 27.187 13.6965 27.187C11.8197 27.187 10.2982 28.7085 10.2982 30.5854C10.2982 32.4622 11.8197 33.9837 13.6965 33.9837Z" fill="url(#paint4_linear_12_599)"/>
<path d="M4.63421 24.9214C6.51108 24.9214 8.03259 23.3999 8.03259 21.523C8.03259 19.6462 6.51108 18.1247 4.63421 18.1247C2.75734 18.1247 1.23584 19.6462 1.23584 21.523C1.23584 23.3999 2.75734 24.9214 4.63421 24.9214Z" fill="url(#paint5_linear_12_599)"/>
<path d="M13.6965 15.8591C15.5734 15.8591 17.0949 14.3376 17.0949 12.4607C17.0949 10.5838 15.5734 9.06233 13.6965 9.06233C11.8197 9.06233 10.2982 10.5838 10.2982 12.4607C10.2982 14.3376 11.8197 15.8591 13.6965 15.8591Z" fill="url(#paint6_linear_12_599)"/>
<path d="M4.63421 6.79675C6.51108 6.79675 8.03259 5.27524 8.03259 3.39837C8.03259 1.5215 6.51108 0 4.63421 0C2.75734 0 1.23584 1.5215 1.23584 3.39837C1.23584 5.27524 2.75734 6.79675 4.63421 6.79675Z" fill="url(#paint7_linear_12_599)"/>
<path d="M52.2115 33.9837C54.0883 33.9837 55.6098 32.4622 55.6098 30.5854C55.6098 28.7085 54.0883 27.187 52.2115 27.187C50.3346 27.187 48.8131 28.7085 48.8131 30.5854C48.8131 32.4622 50.3346 33.9837 52.2115 33.9837Z" fill="url(#paint8_linear_12_599)"/>
<path d="M43.1491 24.9214C45.026 24.9214 46.5475 23.3999 46.5475 21.523C46.5475 19.6462 45.026 18.1247 43.1491 18.1247C41.2722 18.1247 39.7507 19.6462 39.7507 21.523C39.7507 23.3999 41.2722 24.9214 43.1491 24.9214Z" fill="url(#paint9_linear_12_599)"/>
<path d="M52.2115 15.8591C54.0883 15.8591 55.6098 14.3376 55.6098 12.4607C55.6098 10.5838 54.0883 9.06233 52.2115 9.06233C50.3346 9.06233 48.8131 10.5838 48.8131 12.4607C48.8131 14.3376 50.3346 15.8591 52.2115 15.8591Z" fill="url(#paint10_linear_12_599)"/>
<path d="M43.1491 6.79675C45.026 6.79675 46.5475 5.27524 46.5475 3.39837C46.5475 1.5215 45.026 0 43.1491 0C41.2722 0 39.7507 1.5215 39.7507 3.39837C39.7507 5.27524 41.2722 6.79675 43.1491 6.79675Z" fill="url(#paint11_linear_12_599)"/>
<path d="M34.0868 54.374C35.9637 54.374 37.4852 52.8525 37.4852 50.9756C37.4852 49.0987 35.9637 47.5772 34.0868 47.5772C32.2099 47.5772 30.6884 49.0987 30.6884 50.9756C30.6884 52.8525 32.2099 54.374 34.0868 54.374Z" fill="url(#paint12_linear_12_599)"/>
<path d="M25.0245 45.3117C26.9013 45.3117 28.4228 43.7902 28.4228 41.9133C28.4228 40.0364 26.9013 38.5149 25.0245 38.5149C23.1476 38.5149 21.6261 40.0364 21.6261 41.9133C21.6261 43.7902 23.1476 45.3117 25.0245 45.3117Z" fill="url(#paint13_linear_12_599)"/>
<path d="M34.0868 36.2493C35.9637 36.2493 37.4852 34.7278 37.4852 32.8509C37.4852 30.9741 35.9637 29.4526 34.0868 29.4526C32.2099 29.4526 30.6884 30.9741 30.6884 32.8509C30.6884 34.7278 32.2099 36.2493 34.0868 36.2493Z" fill="url(#paint14_linear_12_599)"/>
<path d="M25.0245 27.187C26.9013 27.187 28.4228 25.6655 28.4228 23.7886C28.4228 21.9117 26.9013 20.3902 25.0245 20.3902C23.1476 20.3902 21.6261 21.9117 21.6261 23.7886C21.6261 25.6655 23.1476 27.187 25.0245 27.187Z" fill="url(#paint15_linear_12_599)"/>
</g>
<path d="M4.72802 104.61H1.57605V120.37H4.72802V104.61Z" fill="#2196F3"/>
<path d="M11.0319 104.61H7.87988V120.37H11.0319V104.61Z" fill="#2196F3"/>
<path d="M17.3359 104.61H14.1839V120.37H17.3359V104.61Z" fill="#2196F3"/>
<path d="M23.6398 104.61H20.4878V120.37H23.6398V104.61Z" fill="#2196F3"/>
<path d="M31.5197 101.458H28.3677V121.946H31.5197V101.458Z" fill="#2196F3"/>
<path d="M39.3997 104.61H36.2477V120.37H39.3997V104.61Z" fill="#2196F3"/>
<path d="M45.7037 104.61H42.5517V120.37H45.7037V104.61Z" fill="#2196F3"/>
<path d="M52.0076 104.61H48.8556V120.37H52.0076V104.61Z" fill="#2196F3"/>
<path d="M58.3114 104.61H55.1595V120.37H58.3114V104.61Z" fill="#2196F3"/>
<path d="M31.5197 98.3064C31.5197 99.178 30.8137 99.8824 29.9437 99.8824C29.0738 99.8824 28.3677 99.178 28.3677 98.3064C28.3677 97.4349 29.9437 95.1545 29.9437 95.1545C29.9437 95.1545 31.5197 97.4349 31.5197 98.3064Z" fill="#FFC107"/>
<path d="M23.6398 101.458C23.6398 102.33 22.9337 103.034 22.0638 103.034C21.1938 103.034 20.4878 102.33 20.4878 101.458C20.4878 100.587 22.0638 98.3064 22.0638 98.3064C22.0638 98.3064 23.6398 100.587 23.6398 101.458Z" fill="#FFC107"/>
<path d="M17.3359 101.458C17.3359 102.33 16.6298 103.034 15.7599 103.034C14.8899 103.034 14.1839 102.33 14.1839 101.458C14.1839 100.587 15.7599 98.3064 15.7599 98.3064C15.7599 98.3064 17.3359 100.587 17.3359 101.458Z" fill="#FFC107"/>
<path d="M11.0319 101.458C11.0319 102.33 10.3258 103.034 9.45587 103.034C8.58592 103.034 7.87988 102.33 7.87988 101.458C7.87988 100.587 9.45587 98.3064 9.45587 98.3064C9.45587 98.3064 11.0319 100.587 11.0319 101.458Z" fill="#FFC107"/>
<path d="M4.72802 101.458C4.72802 102.33 4.02198 103.034 3.15204 103.034C2.28209 103.034 1.57605 102.33 1.57605 101.458C1.57605 100.587 3.15204 98.3064 3.15204 98.3064C3.15204 98.3064 4.72802 100.587 4.72802 101.458Z" fill="#FFC107"/>
<path d="M58.3114 101.458C58.3114 102.33 57.607 103.034 56.7354 103.034C55.8639 103.034 55.1595 102.33 55.1595 101.458C55.1595 100.587 56.7354 98.3064 56.7354 98.3064C56.7354 98.3064 58.3114 100.587 58.3114 101.458Z" fill="#FFC107"/>
<path d="M52.0076 101.458C52.0076 102.33 51.3031 103.034 50.4316 103.034C49.5601 103.034 48.8556 102.33 48.8556 101.458C48.8556 100.587 50.4316 98.3064 50.4316 98.3064C50.4316 98.3064 52.0076 100.587 52.0076 101.458Z" fill="#FFC107"/>
<path d="M45.7037 101.458C45.7037 102.33 44.9992 103.034 44.1277 103.034C43.2562 103.034 42.5517 102.33 42.5517 101.458C42.5517 100.587 44.1277 98.3064 44.1277 98.3064C44.1277 98.3064 45.7037 100.587 45.7037 101.458Z" fill="#FFC107"/>
<path d="M39.3997 101.458C39.3997 102.33 38.6952 103.034 37.8237 103.034C36.9522 103.034 36.2477 102.33 36.2477 101.458C36.2477 100.587 37.8237 98.3064 37.8237 98.3064C37.8237 98.3064 39.3997 100.587 39.3997 101.458Z" fill="#FFC107"/>
<path d="M25.2158 120.37H0V123.522H25.2158V120.37Z" fill="#FFC107"/>
<path d="M59.8875 120.37H34.6717V123.522H59.8875V120.37Z" fill="#FFC107"/>
<path d="M56.7353 121.946V126.674C56.7353 135.378 49.6797 142.434 40.9755 142.434H18.9117C10.2075 142.434 3.15186 135.378 3.15186 126.674V121.946" stroke="#FFC107" stroke-width="2"/>
<path d="M50.4315 121.946V126.674C50.4315 132.767 45.4923 137.706 39.3996 137.706H20.4878C14.395 137.706 9.45587 132.767 9.45587 126.674V121.946" stroke="#FFC107" stroke-width="2"/>
<path d="M44.1277 122.072V126.674C44.1277 130.156 41.3051 132.978 37.8238 132.978H22.0639C18.5826 132.978 15.76 130.156 15.76 126.674V121.946" stroke="#FFC107" stroke-width="2"/>
<path d="M37.8236 121.946V126.674C37.8236 127.546 37.1192 128.25 36.2476 128.25H23.6398C22.7698 128.25 22.0638 127.546 22.0638 126.674V121.946" stroke="#FFC107" stroke-width="2"/>
<path d="M31.5197 117.218H28.3677V151.89H31.5197V117.218Z" fill="#FFC107"/>
<path d="M33.0957 115.642H26.7917V118.794H33.0957V115.642Z" fill="#FFC107"/>
<path d="M36.2476 148.738H23.6398C21.8999 148.738 20.4878 150.15 20.4878 151.89H39.3996C39.3996 150.15 37.9875 148.738 36.2476 148.738Z" fill="#DD9F05"/>
<path d="M39.3997 123.522H36.2477V126.674H39.3997V123.522Z" fill="#DD9F05"/>
<path d="M31.5197 118.794H28.3677V121.946H31.5197V118.794Z" fill="#DD9F05"/>
<path d="M45.7037 123.522H42.5517V126.674H45.7037V123.522Z" fill="#DD9F05"/>
<path d="M52.0076 123.522H48.8556V126.674H52.0076V123.522Z" fill="#DD9F05"/>
<path d="M58.3114 123.522H55.1595V126.674H58.3114V123.522Z" fill="#DD9F05"/>
<path d="M4.72802 123.522H1.57605V126.674H4.72802V123.522Z" fill="#DD9F05"/>
<path d="M11.0319 123.522H7.87988V126.674H11.0319V123.522Z" fill="#DD9F05"/>
<path d="M17.3359 123.522H14.1839V126.674H17.3359V123.522Z" fill="#DD9F05"/>
<path d="M23.6398 123.522H20.4878V126.674H23.6398V123.522Z" fill="#DD9F05"/>
<g filter="url(#filter1_d_12_599)">
<path d="M80.3252 12.3577C67.6157 12.3577 55.1917 16.0903 44.6242 23.0834C34.0566 30.0765 25.8202 40.016 20.9565 51.6451C16.0928 63.2742 14.8203 76.0706 17.2998 88.416C19.7793 100.761 25.8995 112.101 34.8864 121.002C43.8733 129.902 55.3234 135.964 67.7887 138.419C80.2539 140.875 93.1745 139.615 104.916 134.798C116.658 129.981 126.695 121.824 133.756 111.358C140.817 100.892 144.585 88.5872 144.585 76C144.567 59.1266 137.791 42.9495 125.744 31.0183C113.697 19.087 97.3624 12.376 80.3252 12.3577ZM80.3252 28.2683C90.3264 28.2694 100.077 31.3701 108.209 37.1358L41.0837 103.61C35.945 96.479 32.8905 88.083 32.2559 79.3446C31.6213 70.6062 33.4311 61.8637 37.4865 54.0776C41.5418 46.2916 47.6858 39.7633 55.2432 35.2101C62.8007 30.6569 71.4792 28.255 80.3252 28.2683ZM80.3252 123.732C70.3255 123.731 60.5769 120.63 52.447 114.864L119.567 48.3845C124.707 55.5157 127.763 63.9123 128.398 72.6514C129.033 81.3906 127.224 90.1341 123.168 97.9211C119.113 105.708 112.968 112.237 105.41 116.791C97.8516 121.344 89.1721 123.746 80.3252 123.732Z" fill="url(#paint16_linear_12_599)"/>
<path d="M80.3252 12.3577C67.6157 12.3577 55.1917 16.0903 44.6242 23.0834C34.0566 30.0765 25.8202 40.016 20.9565 51.6451C16.0928 63.2742 14.8203 76.0706 17.2998 88.416C19.7793 100.761 25.8995 112.101 34.8864 121.002C43.8733 129.902 55.3234 135.964 67.7887 138.419C80.2539 140.875 93.1745 139.615 104.916 134.798C116.658 129.981 126.695 121.824 133.756 111.358C140.817 100.892 144.585 88.5872 144.585 76C144.567 59.1266 137.791 42.9495 125.744 31.0183C113.697 19.087 97.3624 12.376 80.3252 12.3577ZM80.3252 28.2683C90.3264 28.2694 100.077 31.3701 108.209 37.1358L41.0837 103.61C35.945 96.479 32.8905 88.083 32.2559 79.3446C31.6213 70.6062 33.4311 61.8637 37.4865 54.0776C41.5418 46.2916 47.6858 39.7633 55.2432 35.2101C62.8007 30.6569 71.4792 28.255 80.3252 28.2683ZM80.3252 123.732C70.3255 123.731 60.5769 120.63 52.447 114.864L119.567 48.3845C124.707 55.5157 127.763 63.9123 128.398 72.6514C129.033 81.3906 127.224 90.1341 123.168 97.9211C119.113 105.708 112.968 112.237 105.41 116.791C97.8516 121.344 89.1721 123.746 80.3252 123.732Z" stroke="black" stroke-width="0.5"/>
</g>
<defs>
<filter id="filter0_i_12_599" x="108.748" y="91.4472" width="63.3171" height="64.5528" filterUnits="userSpaceOnUse" color-interpolation-filters="sRGB">
<feFlood flood-opacity="0" result="BackgroundImageFix"/>
<feBlend mode="normal" in="SourceGraphic" in2="BackgroundImageFix" result="shape"/>
<feColorMatrix in="SourceAlpha" type="matrix" values="0 0 0 0 0 0 0 0 0 0 0 0 0 0 0 0 0 0 127 0" result="hardAlpha"/>
<feOffset dx="4" dy="4"/>
<feGaussianBlur stdDeviation="4"/>
<feComposite in2="hardAlpha" operator="arithmetic" k2="-1" k3="1"/>
<feColorMatrix type="matrix" values="0 0 0 0 0 0 0 0 0 0 0 0 0 0 0 0 0 0 0.25 0"/>
<feBlend mode="normal" in2="shape" result="effect1_innerShadow_12_599"/>
</filter>
<filter id="filter1_d_12_599" x="15.815" y="12.1077" width="137.02" height="135.785" filterUnits="userSpaceOnUse" color-interpolation-filters="sRGB">
<feFlood flood-opacity="0" result="BackgroundImageFix"/>
<feColorMatrix in="SourceAlpha" type="matrix" values="0 0 0 0 0 0 0 0 0 0 0 0 0 0 0 0 0 0 127 0" result="hardAlpha"/>
<feOffset dx="4" dy="4"/>
<feGaussianBlur stdDeviation="2"/>
<feComposite in2="hardAlpha" operator="out"/>
<feColorMatrix type="matrix" values="0 0 0 0 0 0 0 0 0 0 0 0 0 0 0 0 0 0 0.25 0"/>
<feBlend mode="normal" in2="BackgroundImageFix" result="effect1_dropShadow_12_599"/>
<feBlend mode="normal" in="SourceGraphic" in2="effect1_dropShadow_12_599" result="shape"/>
</filter>
<linearGradient id="paint0_linear_12_599" x1="138.502" y1="0.054184" x2="138.502" y2="59.3171" gradientUnits="userSpaceOnUse">
<stop stop-color="#166719"/>
<stop offset="1" stop-color="#311705"/>
</linearGradient>
<linearGradient id="paint1_linear_12_599" x1="46.5475" y1="36.2511" x2="46.5475" y2="54.3721" gradientUnits="userSpaceOnUse">
<stop stop-color="#FD3030"/>
<stop offset="1" stop-color="#E4DD31"/>
</linearGradient>
<linearGradient id="paint2_linear_12_599" x1="28.4234" y1="0.0018158" x2="28.4234" y2="18.1228" gradientUnits="userSpaceOnUse">
<stop stop-color="#FD3030"/>
<stop offset="1" stop-color="#E4DD31"/>
</linearGradient>
<linearGradient id="paint3_linear_12_599" x1="10.2965" y1="36.2511" x2="10.2965" y2="54.3721" gradientUnits="userSpaceOnUse">
<stop stop-color="#FD3030"/>
<stop offset="1" stop-color="#E4DD31"/>
</linearGradient>
<linearGradient id="paint4_linear_12_599" x1="13.6965" y1="27.187" x2="13.6965" y2="33.9837" gradientUnits="userSpaceOnUse">
<stop stop-color="#FD3030"/>
<stop offset="1" stop-color="#E4DD31"/>
</linearGradient>
<linearGradient id="paint5_linear_12_599" x1="4.63421" y1="18.1247" x2="4.63421" y2="24.9214" gradientUnits="userSpaceOnUse">
<stop stop-color="#FD3030"/>
<stop offset="1" stop-color="#E4DD31"/>
</linearGradient>
<linearGradient id="paint6_linear_12_599" x1="13.6965" y1="9.06233" x2="13.6965" y2="15.8591" gradientUnits="userSpaceOnUse">
<stop stop-color="#FD3030"/>
<stop offset="1" stop-color="#E4DD31"/>
</linearGradient>
<linearGradient id="paint7_linear_12_599" x1="4.63421" y1="0" x2="4.63421" y2="6.79675" gradientUnits="userSpaceOnUse">
<stop stop-color="#FD3030"/>
<stop offset="1" stop-color="#E4DD31"/>
</linearGradient>
<linearGradient id="paint8_linear_12_599" x1="52.2115" y1="27.187" x2="52.2115" y2="33.9837" gradientUnits="userSpaceOnUse">
<stop stop-color="#FD3030"/>
<stop offset="1" stop-color="#E4DD31"/>
</linearGradient>
<linearGradient id="paint9_linear_12_599" x1="43.1491" y1="18.1247" x2="43.1491" y2="24.9214" gradientUnits="userSpaceOnUse">
<stop stop-color="#FD3030"/>
<stop offset="1" stop-color="#E4DD31"/>
</linearGradient>
<linearGradient id="paint10_linear_12_599" x1="52.2115" y1="9.06233" x2="52.2115" y2="15.8591" gradientUnits="userSpaceOnUse">
<stop stop-color="#FD3030"/>
<stop offset="1" stop-color="#E4DD31"/>
</linearGradient>
<linearGradient id="paint11_linear_12_599" x1="43.1491" y1="0" x2="43.1491" y2="6.79675" gradientUnits="userSpaceOnUse">
<stop stop-color="#FD3030"/>
<stop offset="1" stop-color="#E4DD31"/>
</linearGradient>
<linearGradient id="paint12_linear_12_599" x1="34.0868" y1="47.5772" x2="34.0868" y2="54.374" gradientUnits="userSpaceOnUse">
<stop stop-color="#FD3030"/>
<stop offset="1" stop-color="#E4DD31"/>
</linearGradient>
<linearGradient id="paint13_linear_12_599" x1="25.0245" y1="38.5149" x2="25.0245" y2="45.3117" gradientUnits="userSpaceOnUse">
<stop stop-color="#FD3030"/>
<stop offset="1" stop-color="#E4DD31"/>
</linearGradient>
<linearGradient id="paint14_linear_12_599" x1="34.0868" y1="29.4526" x2="34.0868" y2="36.2493" gradientUnits="userSpaceOnUse">
<stop stop-color="#FD3030"/>
<stop offset="1" stop-color="#E4DD31"/>
</linearGradient>
<linearGradient id="paint15_linear_12_599" x1="25.0245" y1="20.3902" x2="25.0245" y2="27.187" gradientUnits="userSpaceOnUse">
<stop stop-color="#FD3030"/>
<stop offset="1" stop-color="#E4DD31"/>
</linearGradient>
<linearGradient id="paint16_linear_12_599" x1="80.3252" y1="12.3577" x2="80.3252" y2="139.642" gradientUnits="userSpaceOnUse">
<stop stop-color="#6C0000"/>
<stop offset="1" stop-color="#380000"/>
</linearGradient>
<clipPath id="clip0_12_599">
<rect width="54.374" height="54.374" fill="white" transform="translate(1.23584)"/>
</clipPath>
</defs>
</svg>
