<svg width="60" height="60" viewBox="0 0 60 60" fill="none" xmlns="http://www.w3.org/2000/svg">
<g filter="url(#filter0_i_46_214)">
<path d="M41.7875 15.0003C40.6825 15.0003 39.34 15.5303 38.35 16.0153C36.365 15.0528 34.47 14.7928 32.595 15.2303C33.445 5.13276 39.93 5.00026 40 5.00026C41.3775 5.00026 42.5 6.12276 42.5025 7.50026C41.1225 7.50026 40 8.62026 40 10.0003C40 11.3803 41.12 12.5003 42.5 12.5003C45.2575 12.5003 47.5 10.2578 47.5 7.50026C47.5 3.36526 44.135 0.000257773 40 0.000257773C37.1975 0.000257773 32.79 1.55776 30.025 6.40776C28.545 3.73276 26.4225 1.66526 23.6175 0.265258C22.38 -0.354742 20.88 0.150258 20.2625 1.38276C19.645 2.61776 20.145 4.12026 21.38 4.73776C24.9975 6.54526 26.98 9.99276 27.4075 15.2303C25.57 14.8028 23.7175 15.0378 21.775 15.9553C20.69 15.3228 19.4925 15.0028 18.21 15.0028C11.1875 15.0003 0 25.2978 0 37.5003C0 49.7028 11.2125 60.0003 18.255 60.0003C19.4 60.0003 20.48 59.7353 21.48 59.2103C23.435 60.0728 25.3825 60.1878 27.385 59.5378C29.1225 60.1528 30.8775 60.1528 32.6175 59.5378C34.6225 60.1878 36.57 60.0728 38.5225 59.2103C39.5225 59.7353 40.6025 60.0003 41.7475 60.0003C48.79 60.0003 60.0025 49.7028 60.0025 37.5003C60.0025 25.2978 48.8125 15.0003 41.7875 15.0003ZM33.96 32.1403L36.985 26.0903C37.3475 25.3628 38.0475 25.0003 38.75 25.0003C39.4525 25.0003 40.15 25.3628 40.515 26.0903L43.54 32.1403C44.195 33.4503 43.2425 34.9953 41.775 34.9953H35.725C34.26 34.9953 33.305 33.4528 33.96 32.1403ZM16.46 32.1453L19.485 26.0953C19.8475 25.3678 20.5475 25.0053 21.25 25.0053C21.9525 25.0053 22.65 25.3678 23.015 26.0953L26.04 32.1453C26.695 33.4578 25.7425 35.0003 24.275 35.0003H18.225C16.76 35.0003 15.805 33.4578 16.46 32.1453ZM47.02 41.2503C45.35 42.7478 40.045 45.6978 37.5 46.9178V46.2503C37.5 44.8703 36.38 43.7503 35 43.7503C33.62 43.7503 32.5 44.8703 32.5 46.2503V48.5203C31.685 48.6553 30.855 48.7503 30 48.7503C21.25 48.7503 16.1325 44.1028 12.99 41.2803C11.8825 40.2853 12.805 38.4878 14.265 38.7828C15.68 39.0703 20.51 40.6403 22.5 40.8578V42.5003C22.5 43.8803 23.62 45.0003 25 45.0003C26.38 45.0003 27.5 43.8803 27.5 42.5003V41.2028C28.3075 41.2303 29.1325 41.2503 30 41.2503C35.4225 41.2503 42.8075 39.3678 45.7675 38.7653C47.2 38.4753 48.1075 40.2753 47.02 41.2503Z" fill="url(#paint0_linear_46_214)"/>
</g>
<defs>
<filter id="filter0_i_46_214" x="0" y="0" width="64.0025" height="64.0003" filterUnits="userSpaceOnUse" color-interpolation-filters="sRGB">
<feFlood flood-opacity="0" result="BackgroundImageFix"/>
<feBlend mode="normal" in="SourceGraphic" in2="BackgroundImageFix" result="shape"/>
<feColorMatrix in="SourceAlpha" type="matrix" values="0 0 0 0 0 0 0 0 0 0 0 0 0 0 0 0 0 0 127 0" result="hardAlpha"/>
<feOffset dx="4" dy="4"/>
<feGaussianBlur stdDeviation="4"/>
<feComposite in2="hardAlpha" operator="arithmetic" k2="-1" k3="1"/>
<feColorMatrix type="matrix" values="0 0 0 0 0 0 0 0 0 0 0 0 0 0 0 0 0 0 0.25 0"/>
<feBlend mode="normal" in2="shape" result="effect1_innerShadow_46_214"/>
</filter>
<linearGradient id="paint0_linear_46_214" x1="30.0013" y1="0" x2="30.0013" y2="60.0003" gradientUnits="userSpaceOnUse">
<stop stop-color="#EB5210"/>
<stop offset="1" stop-color="#9F3000"/>
</linearGradient>
</defs>
</svg>
