<svg width="68" height="64" viewBox="0 0 68 64" fill="none" xmlns="http://www.w3.org/2000/svg">
<path d="M5.33334 10.6667H1.77779V28.4444H5.33334V10.6667Z" fill="#2196F3"/>
<path d="M12.4445 10.6667H8.8889V28.4444H12.4445V10.6667Z" fill="#2196F3"/>
<path d="M19.5556 10.6667H16V28.4444H19.5556V10.6667Z" fill="#2196F3"/>
<path d="M26.6667 10.6667H23.1111V28.4444H26.6667V10.6667Z" fill="#2196F3"/>
<path d="M35.5556 7.11111H32V30.2222H35.5556V7.11111Z" fill="#2196F3"/>
<path d="M44.4445 10.6667H40.8889V28.4444H44.4445V10.6667Z" fill="#2196F3"/>
<path d="M51.5556 10.6667H48V28.4444H51.5556V10.6667Z" fill="#2196F3"/>
<path d="M58.6667 10.6667H55.1111V28.4444H58.6667V10.6667Z" fill="#2196F3"/>
<path d="M65.7778 10.6667H62.2222V28.4444H65.7778V10.6667Z" fill="#2196F3"/>
<path d="M35.5556 3.55556C35.5556 4.53867 34.7591 5.33333 33.7778 5.33333C32.7964 5.33333 32 4.53867 32 3.55556C32 2.57244 33.7778 0 33.7778 0C33.7778 0 35.5556 2.57244 35.5556 3.55556Z" fill="#FFC107"/>
<path d="M26.6667 7.11111C26.6667 8.09422 25.8702 8.88889 24.8889 8.88889C23.9076 8.88889 23.1111 8.09422 23.1111 7.11111C23.1111 6.128 24.8889 3.55556 24.8889 3.55556C24.8889 3.55556 26.6667 6.128 26.6667 7.11111Z" fill="#FFC107"/>
<path d="M19.5556 7.11111C19.5556 8.09422 18.7591 8.88889 17.7778 8.88889C16.7964 8.88889 16 8.09422 16 7.11111C16 6.128 17.7778 3.55556 17.7778 3.55556C17.7778 3.55556 19.5556 6.128 19.5556 7.11111Z" fill="#FFC107"/>
<path d="M12.4445 7.11111C12.4445 8.09422 11.648 8.88889 10.6667 8.88889C9.68535 8.88889 8.8889 8.09422 8.8889 7.11111C8.8889 6.128 10.6667 3.55556 10.6667 3.55556C10.6667 3.55556 12.4445 6.128 12.4445 7.11111Z" fill="#FFC107"/>
<path d="M5.33334 7.11111C5.33334 8.09422 4.5369 8.88889 3.55556 8.88889C2.57423 8.88889 1.77779 8.09422 1.77779 7.11111C1.77779 6.128 3.55556 3.55556 3.55556 3.55556C3.55556 3.55556 5.33334 6.128 5.33334 7.11111Z" fill="#FFC107"/>
<path d="M65.7778 7.11111C65.7778 8.09422 64.9831 8.88889 64 8.88889C63.0169 8.88889 62.2222 8.09422 62.2222 7.11111C62.2222 6.128 64 3.55556 64 3.55556C64 3.55556 65.7778 6.128 65.7778 7.11111Z" fill="#FFC107"/>
<path d="M58.6667 7.11111C58.6667 8.09422 57.872 8.88889 56.8889 8.88889C55.9058 8.88889 55.1111 8.09422 55.1111 7.11111C55.1111 6.128 56.8889 3.55556 56.8889 3.55556C56.8889 3.55556 58.6667 6.128 58.6667 7.11111Z" fill="#FFC107"/>
<path d="M51.5556 7.11111C51.5556 8.09422 50.7609 8.88889 49.7778 8.88889C48.7947 8.88889 48 8.09422 48 7.11111C48 6.128 49.7778 3.55556 49.7778 3.55556C49.7778 3.55556 51.5556 6.128 51.5556 7.11111Z" fill="#FFC107"/>
<path d="M44.4445 7.11111C44.4445 8.09422 43.6498 8.88889 42.6667 8.88889C41.6836 8.88889 40.8889 8.09422 40.8889 7.11111C40.8889 6.128 42.6667 3.55556 42.6667 3.55556C42.6667 3.55556 44.4445 6.128 44.4445 7.11111Z" fill="#FFC107"/>
<path d="M28.4444 28.4444H0V32H28.4444V28.4444Z" fill="#FFC107"/>
<path d="M67.5556 28.4444H39.1111V32H67.5556V28.4444Z" fill="#FFC107"/>
<path d="M64 30.2222V35.5556C64 45.3742 56.0409 53.3333 46.2222 53.3333H21.3333C11.5147 53.3333 3.55555 45.3742 3.55555 35.5556V30.2222" stroke="#FFC107" stroke-width="2"/>
<path d="M56.8889 30.2222V35.5556C56.8889 42.4284 51.3173 48 44.4444 48H23.1111C16.2382 48 10.6667 42.4284 10.6667 35.5556V30.2222" stroke="#FFC107" stroke-width="2"/>
<path d="M49.7778 30.3644V35.5556C49.7778 39.4827 46.5938 42.6667 42.6667 42.6667H24.8889C20.9618 42.6667 17.7778 39.4827 17.7778 35.5556V30.2222" stroke="#FFC107" stroke-width="2"/>
<path d="M42.6667 30.2222V35.5556C42.6667 36.5387 41.872 37.3333 40.8889 37.3333H26.6667C25.6853 37.3333 24.8889 36.5387 24.8889 35.5556V30.2222" stroke="#FFC107" stroke-width="2"/>
<path d="M35.5556 24.8889H32V64H35.5556V24.8889Z" fill="#FFC107"/>
<path d="M37.3333 23.1111H30.2222V26.6667H37.3333V23.1111Z" fill="#FFC107"/>
<path d="M40.8889 60.4445H26.6667C24.704 60.4445 23.1111 62.0373 23.1111 64H44.4444C44.4444 62.0373 42.8516 60.4445 40.8889 60.4445Z" fill="#DD9F05"/>
<path d="M44.4445 32H40.8889V35.5556H44.4445V32Z" fill="#DD9F05"/>
<path d="M35.5556 26.6667H32V30.2222H35.5556V26.6667Z" fill="#DD9F05"/>
<path d="M51.5556 32H48V35.5556H51.5556V32Z" fill="#DD9F05"/>
<path d="M58.6667 32H55.1111V35.5556H58.6667V32Z" fill="#DD9F05"/>
<path d="M65.7778 32H62.2222V35.5556H65.7778V32Z" fill="#DD9F05"/>
<path d="M5.33334 32H1.77779V35.5556H5.33334V32Z" fill="#DD9F05"/>
<path d="M12.4445 32H8.8889V35.5556H12.4445V32Z" fill="#DD9F05"/>
<path d="M19.5556 32H16V35.5556H19.5556V32Z" fill="#DD9F05"/>
<path d="M26.6667 32H23.1111V35.5556H26.6667V32Z" fill="#DD9F05"/>
</svg>
