<svg width="60" height="60" viewBox="0 0 60 60" fill="none" xmlns="http://www.w3.org/2000/svg">
<path d="M57.0844 17.1859L59.9568 2.96375C60.1293 2.04627 59.7768 1.11129 59.0419 0.533799C58.3094 -0.0436879 57.3119 -0.161185 56.4669 0.226306L46.3846 4.9012C41.6698 1.81377 36.0474 0.0013111 30 0.0013111C23.9526 0.0013111 18.3328 1.81377 13.6154 4.9012L3.53559 0.226306C2.6906 -0.161185 1.69313 -0.0461878 0.958142 0.533799C0.223158 1.10879 -0.129334 2.04377 0.043162 2.96375L2.9156 17.1834C1.06564 21.0759 0.000662893 25.4108 0.000662893 30.0007C0.000662893 46.5428 13.4579 60 30 60C46.5421 60 59.9993 46.5428 59.9993 30.0007C59.9993 25.4108 58.9344 21.0784 57.0844 17.1859ZM13.0054 18.4984C13.8379 17.3959 15.4003 17.1759 16.5053 18.0059L23.6201 23.3683C23.6201 23.3683 23.6201 23.3708 23.6251 23.3733C24.4601 24.0608 25.0026 25.0883 25.0026 26.2557C25.0026 28.3257 23.3227 30.0057 21.2527 30.0057C19.1827 30.0057 17.5028 28.3257 17.5028 26.2557C17.5028 25.8707 17.5778 25.5058 17.6853 25.1583L13.4979 22.0033C12.3954 21.1733 12.1754 19.6034 13.0054 18.5034V18.4984ZM44.3647 44.1678C43.8722 44.7228 43.1872 45.0028 42.4997 45.0028C41.9072 45.0028 41.3123 44.7928 40.8348 44.3678C40.7898 44.3278 35.8274 40.0029 30 40.0029C24.1726 40.0029 19.2102 44.3278 19.1602 44.3703C18.1303 45.2878 16.5503 45.1953 15.6328 44.1603C14.7178 43.1304 14.8053 41.5554 15.8353 40.6379C16.0928 40.4079 22.2327 35.003 30 35.003C37.7673 35.003 43.9072 40.4079 44.1647 40.6379C45.1947 41.5579 45.2847 43.1379 44.3647 44.1678ZM46.5046 22.0008L42.3172 25.1558C42.4247 25.5058 42.4997 25.8682 42.4997 26.2532C42.4997 28.3232 40.8198 30.0032 38.7498 30.0032C36.6799 30.0032 34.9999 28.3232 34.9999 26.2532C34.9999 25.0883 35.5424 24.0583 36.3774 23.3708L43.4972 18.0059C44.6022 17.1734 46.1671 17.3959 46.9971 18.4984C47.8271 19.5984 47.6071 21.1683 46.5046 21.9983V22.0008Z" fill="url(#paint0_linear_47_230)"/>
<defs>
<linearGradient id="paint0_linear_47_230" x1="13.5" y1="3" x2="44.5" y2="60" gradientUnits="userSpaceOnUse">
<stop stop-color="#A30000"/>
<stop offset="1" stop-color="#5A0101"/>
</linearGradient>
</defs>
</svg>
