<svg width="61" height="61" viewBox="0 0 61 61" fill="none" xmlns="http://www.w3.org/2000/svg">
<g filter="url(#filter0_i_46_220)">
<path d="M60.925 55.0502L48.0428 37.5342H55.4045L44.3634 22.5205H50.4166L35.5553 1.75155C34.3129 0.663148 32.6527 0.0547791 30.925 0.0547791C29.1973 0.0547791 27.5371 0.663148 26.2946 1.75155L11.3478 22.5205H17.4866L6.44554 37.5342H13.8044L0.924995 55.0502H28.1661V60.0548H33.6866V55.0502H60.925ZM33.579 45.0411C33.0331 45.0411 32.4994 44.8943 32.0455 44.6194C31.5915 44.3444 31.2378 43.9536 31.0288 43.4964C30.8199 43.0391 30.7653 42.536 30.8718 42.0506C30.9783 41.5652 31.2412 41.1194 31.6272 40.7694C32.0132 40.4195 32.5051 40.1811 33.0405 40.0846C33.5759 39.988 34.1309 40.0376 34.6353 40.227C35.1397 40.4164 35.5708 40.7371 35.8741 41.1486C36.1774 41.5601 36.3393 42.0439 36.3393 42.5388C36.3393 43.2024 36.0485 43.8389 35.5308 44.3082C35.0131 44.7774 34.3111 45.0411 33.579 45.0411ZM41.8598 45.0411C42.4057 45.0411 42.9394 45.1878 43.3933 45.4628C43.8473 45.7377 44.201 46.1285 44.41 46.5858C44.6189 47.043 44.6735 47.5461 44.567 48.0315C44.4605 48.5169 44.1976 48.9628 43.8116 49.3127C43.4256 49.6627 42.9338 49.901 42.3983 49.9976C41.8629 50.0941 41.3079 50.0446 40.8035 49.8552C40.2991 49.6658 39.868 49.3451 39.5647 48.9336C39.2614 48.5221 39.0995 48.0383 39.0995 47.5434C39.0995 46.8797 39.3904 46.2432 39.908 45.774C40.4257 45.3047 41.1277 45.0411 41.8598 45.0411ZM39.0995 27.5251C39.6455 27.5251 40.1791 27.6718 40.6331 27.9468C41.087 28.2217 41.4408 28.6125 41.6497 29.0698C41.8586 29.527 41.9133 30.0301 41.8068 30.5155C41.7003 31.0009 41.4374 31.4468 41.0513 31.7967C40.6653 32.1467 40.1735 32.385 39.638 32.4816C39.1026 32.5781 38.5476 32.5286 38.0432 32.3392C37.5389 32.1498 37.1078 31.8291 36.8045 31.4176C36.5012 31.0061 36.3393 30.5223 36.3393 30.0274C36.3393 29.3637 36.6301 28.7273 37.1477 28.258C37.6654 27.7887 38.3675 27.5251 39.0995 27.5251ZM33.579 12.5114C34.1249 12.5114 34.6586 12.6581 35.1125 12.9331C35.5664 13.208 35.9202 13.5988 36.1292 14.0561C36.3381 14.5133 36.3927 15.0164 36.2862 15.5018C36.1797 15.9872 35.9168 16.4331 35.5308 16.783C35.1448 17.133 34.6529 17.3713 34.1175 17.4679C33.5821 17.5644 33.0271 17.5149 32.5227 17.3255C32.0183 17.1361 31.5872 16.8154 31.2839 16.4039C30.9806 15.9924 30.8187 15.5086 30.8187 15.0137C30.8187 14.35 31.1095 13.7135 31.6272 13.2443C32.1448 12.775 32.8469 12.5114 33.579 12.5114ZM19.7776 50.0456C19.2317 50.0456 18.698 49.8989 18.2441 49.6239C17.7902 49.349 17.4364 48.9582 17.2275 48.5009C17.0186 48.0437 16.9639 47.5406 17.0704 47.0552C17.1769 46.5698 17.4398 46.1239 17.8258 45.774C18.2119 45.424 18.7037 45.1857 19.2391 45.0892C19.7746 44.9926 20.3296 45.0422 20.834 45.2315C21.3383 45.4209 21.7694 45.7417 22.0727 46.1532C22.376 46.5647 22.5379 47.0485 22.5379 47.5434C22.5379 48.207 22.2471 48.8435 21.7294 49.3127C21.2118 49.782 20.5097 50.0456 19.7776 50.0456ZM22.5379 37.5342C21.992 37.5342 21.4583 37.3875 21.0044 37.1125C20.5505 36.8376 20.1967 36.4468 19.9878 35.9895C19.7788 35.5323 19.7242 35.0292 19.8307 34.5438C19.9372 34.0584 20.2001 33.6125 20.5861 33.2626C20.9721 32.9126 21.464 32.6743 21.9994 32.5777C22.5349 32.4812 23.0899 32.5307 23.5942 32.7201C24.0986 32.9095 24.5297 33.2302 24.833 33.6417C25.1363 34.0532 25.2982 34.537 25.2982 35.0319C25.2982 35.6956 25.0074 36.332 24.4897 36.8013C23.9721 37.2706 23.27 37.5342 22.5379 37.5342ZM25.2982 25.0228C25.2982 24.5279 25.4601 24.0441 25.7634 23.6326C26.0667 23.2211 26.4978 22.9004 27.0021 22.711C27.5065 22.5216 28.0615 22.472 28.597 22.5686C29.1324 22.6651 29.6242 22.9035 30.0103 23.2534C30.3963 23.6034 30.6592 24.0492 30.7657 24.5346C30.8722 25.02 30.8175 25.5231 30.6086 25.9804C30.3997 26.4376 30.0459 26.8284 29.592 27.1034C29.1381 27.3783 28.6044 27.5251 28.0585 27.5251C27.3264 27.5251 26.6243 27.2614 26.1066 26.7922C25.589 26.3229 25.2982 25.6864 25.2982 25.0228Z" fill="url(#paint0_linear_46_220)"/>
</g>
<defs>
<filter id="filter0_i_46_220" x="0.924995" y="0.0547791" width="64" height="64" filterUnits="userSpaceOnUse" color-interpolation-filters="sRGB">
<feFlood flood-opacity="0" result="BackgroundImageFix"/>
<feBlend mode="normal" in="SourceGraphic" in2="BackgroundImageFix" result="shape"/>
<feColorMatrix in="SourceAlpha" type="matrix" values="0 0 0 0 0 0 0 0 0 0 0 0 0 0 0 0 0 0 127 0" result="hardAlpha"/>
<feOffset dx="4" dy="4"/>
<feGaussianBlur stdDeviation="4"/>
<feComposite in2="hardAlpha" operator="arithmetic" k2="-1" k3="1"/>
<feColorMatrix type="matrix" values="0 0 0 0 0 0 0 0 0 0 0 0 0 0 0 0 0 0 0.25 0"/>
<feBlend mode="normal" in2="shape" result="effect1_innerShadow_46_220"/>
</filter>
<linearGradient id="paint0_linear_46_220" x1="30.925" y1="0.0547791" x2="30.925" y2="60.0548" gradientUnits="userSpaceOnUse">
<stop stop-color="#166719"/>
<stop offset="1" stop-color="#311705"/>
</linearGradient>
</defs>
</svg>
