<svg width="54" height="54" viewBox="0 0 54 54" fill="none" xmlns="http://www.w3.org/2000/svg">
<g clip-path="url(#clip0_46_221)">
<path d="M52.056 42.4237C50.9903 42.119 50.0197 41.5478 49.236 40.764C48.4522 39.9803 47.881 39.0097 47.5762 37.944C47.416 37.3844 47.078 36.8922 46.6132 36.5418C46.1484 36.1913 45.5821 36.0018 45 36.0018C44.4179 36.0018 43.8516 36.1913 43.3868 36.5418C42.922 36.8922 42.584 37.3844 42.4237 37.944C42.119 39.0097 41.5478 39.9803 40.764 40.764C39.9803 41.5478 39.0097 42.119 37.944 42.4237C37.3844 42.584 36.8922 42.922 36.5418 43.3868C36.1913 43.8516 36.0018 44.4179 36.0018 45C36.0018 45.5821 36.1913 46.1484 36.5418 46.6132C36.8922 47.078 37.3844 47.416 37.944 47.5762C39.0097 47.881 39.9803 48.4522 40.764 49.236C41.5478 50.0197 42.119 50.9903 42.4237 52.056C42.584 52.6156 42.922 53.1078 43.3868 53.4582C43.8516 53.8087 44.4179 53.9982 45 53.9982C45.5821 53.9982 46.1484 53.8087 46.6132 53.4582C47.078 53.1078 47.416 52.6156 47.5762 52.056C47.881 50.9903 48.4522 50.0197 49.236 49.236C50.0197 48.4522 50.9903 47.881 52.056 47.5762C52.6156 47.416 53.1078 47.078 53.4582 46.6132C53.8087 46.1484 53.9982 45.5821 53.9982 45C53.9982 44.4179 53.8087 43.8516 53.4582 43.3868C53.1078 42.922 52.6156 42.584 52.056 42.4237Z" fill="url(#paint0_linear_46_221)"/>
<path d="M34.0583 6.42375C32.9921 6.11935 32.0211 5.5483 31.2369 4.7645C30.4527 3.98069 29.8812 3.00999 29.5763 1.944C29.416 1.38439 29.078 0.892163 28.6132 0.541754C28.1484 0.191345 27.5821 0.00181007 27 0.00181007C26.4179 0.00181007 25.8516 0.191345 25.3868 0.541754C24.922 0.892163 24.584 1.38439 24.4238 1.944C24.119 3.00973 23.5478 3.98026 22.764 4.76404C21.9803 5.54782 21.0097 6.11902 19.944 6.42375C19.3844 6.58396 18.8922 6.92203 18.5418 7.38684C18.1914 7.85164 18.0018 8.41791 18.0018 9C18.0018 9.58209 18.1914 10.1484 18.5418 10.6132C18.8922 11.078 19.3844 11.416 19.944 11.5762C21.0097 11.881 21.9803 12.4522 22.764 13.236C23.5478 14.0197 24.119 14.9903 24.4238 16.056C24.584 16.6156 24.922 17.1078 25.3868 17.4582C25.8516 17.8087 26.4179 17.9982 27 17.9982C27.5821 17.9982 28.1484 17.8087 28.6132 17.4582C29.078 17.1078 29.416 16.6156 29.5763 16.056C29.881 14.9903 30.4522 14.0197 31.236 13.236C32.0197 12.4522 32.9903 11.881 34.056 11.5762C34.6157 11.4163 35.1081 11.0784 35.4587 10.6138C35.8093 10.1491 35.9991 9.58294 35.9993 9.00085C35.9996 8.41876 35.8103 7.85241 35.4601 7.38745C35.1099 6.92249 34.6178 6.58421 34.0583 6.42375Z" fill="url(#paint1_linear_46_221)"/>
<path d="M1.94175 47.5762C3.00748 47.881 3.97801 48.4522 4.76179 49.236C5.54558 50.0197 6.11677 50.9903 6.4215 52.056C6.58171 52.6156 6.91978 53.1078 7.38459 53.4582C7.8494 53.8087 8.41566 53.9982 8.99775 53.9982C9.57984 53.9982 10.1461 53.8087 10.6109 53.4582C11.0757 53.1078 11.4138 52.6156 11.574 52.056C11.8787 50.9903 12.4499 50.0197 13.2337 49.236C14.0175 48.4522 14.988 47.881 16.0538 47.5762C16.6134 47.416 17.1056 47.078 17.456 46.6132C17.8064 46.1484 17.9959 45.5821 17.9959 45C17.9959 44.4179 17.8064 43.8516 17.456 43.3868C17.1056 42.922 16.6134 42.584 16.0538 42.4237C14.988 42.119 14.0175 41.5478 13.2337 40.764C12.4499 39.9803 11.8787 39.0097 11.574 37.944C11.4138 37.3844 11.0757 36.8922 10.6109 36.5418C10.1461 36.1913 9.57984 36.0018 8.99775 36.0018C8.41566 36.0018 7.8494 36.1913 7.38459 36.5418C6.91978 36.8922 6.58171 37.3844 6.4215 37.944C6.11698 39.0095 5.54612 39.9798 4.76275 40.7636C3.97938 41.5473 3.00931 42.1187 1.944 42.4237C1.38432 42.5837 0.891948 42.9216 0.541336 43.3862C0.190724 43.8509 0.00094109 44.4171 0.000686901 44.9991C0.000432713 45.5812 0.189721 46.1476 0.539927 46.6125C0.890133 47.0775 1.38221 47.4158 1.94175 47.5762Z" fill="url(#paint2_linear_46_221)"/>
<path d="M12.375 33.75C14.239 33.75 15.75 32.239 15.75 30.375C15.75 28.511 14.239 27 12.375 27C10.511 27 9 28.511 9 30.375C9 32.239 10.511 33.75 12.375 33.75Z" fill="url(#paint3_linear_46_221)"/>
<path d="M3.375 24.75C5.23896 24.75 6.75 23.239 6.75 21.375C6.75 19.511 5.23896 18 3.375 18C1.51104 18 0 19.511 0 21.375C0 23.239 1.51104 24.75 3.375 24.75Z" fill="url(#paint4_linear_46_221)"/>
<path d="M12.375 15.75C14.239 15.75 15.75 14.239 15.75 12.375C15.75 10.511 14.239 9 12.375 9C10.511 9 9 10.511 9 12.375C9 14.239 10.511 15.75 12.375 15.75Z" fill="url(#paint5_linear_46_221)"/>
<path d="M3.375 6.75C5.23896 6.75 6.75 5.23896 6.75 3.375C6.75 1.51104 5.23896 0 3.375 0C1.51104 0 0 1.51104 0 3.375C0 5.23896 1.51104 6.75 3.375 6.75Z" fill="url(#paint6_linear_46_221)"/>
<path d="M50.625 33.75C52.489 33.75 54 32.239 54 30.375C54 28.511 52.489 27 50.625 27C48.761 27 47.25 28.511 47.25 30.375C47.25 32.239 48.761 33.75 50.625 33.75Z" fill="url(#paint7_linear_46_221)"/>
<path d="M41.625 24.75C43.489 24.75 45 23.239 45 21.375C45 19.511 43.489 18 41.625 18C39.761 18 38.25 19.511 38.25 21.375C38.25 23.239 39.761 24.75 41.625 24.75Z" fill="url(#paint8_linear_46_221)"/>
<path d="M50.625 15.75C52.489 15.75 54 14.239 54 12.375C54 10.511 52.489 9 50.625 9C48.761 9 47.25 10.511 47.25 12.375C47.25 14.239 48.761 15.75 50.625 15.75Z" fill="url(#paint9_linear_46_221)"/>
<path d="M41.625 6.75C43.489 6.75 45 5.23896 45 3.375C45 1.51104 43.489 -9.53674e-07 41.625 -9.53674e-07C39.761 -9.53674e-07 38.25 1.51104 38.25 3.375C38.25 5.23896 39.761 6.75 41.625 6.75Z" fill="url(#paint10_linear_46_221)"/>
<path d="M32.625 54C34.489 54 36 52.489 36 50.625C36 48.761 34.489 47.25 32.625 47.25C30.761 47.25 29.25 48.761 29.25 50.625C29.25 52.489 30.761 54 32.625 54Z" fill="url(#paint11_linear_46_221)"/>
<path d="M23.625 45C25.489 45 27 43.489 27 41.625C27 39.761 25.489 38.25 23.625 38.25C21.761 38.25 20.25 39.761 20.25 41.625C20.25 43.489 21.761 45 23.625 45Z" fill="url(#paint12_linear_46_221)"/>
<path d="M32.625 36C34.489 36 36 34.489 36 32.625C36 30.761 34.489 29.25 32.625 29.25C30.761 29.25 29.25 30.761 29.25 32.625C29.25 34.489 30.761 36 32.625 36Z" fill="url(#paint13_linear_46_221)"/>
<path d="M23.625 27C25.489 27 27 25.489 27 23.625C27 21.761 25.489 20.25 23.625 20.25C21.761 20.25 20.25 21.761 20.25 23.625C20.25 25.489 21.761 27 23.625 27Z" fill="url(#paint14_linear_46_221)"/>
</g>
<defs>
<linearGradient id="paint0_linear_46_221" x1="45" y1="36.0018" x2="45" y2="53.9982" gradientUnits="userSpaceOnUse">
<stop stop-color="#FD3030"/>
<stop offset="1" stop-color="#E4DD31"/>
</linearGradient>
<linearGradient id="paint1_linear_46_221" x1="27.0006" y1="0.00181007" x2="27.0006" y2="17.9982" gradientUnits="userSpaceOnUse">
<stop stop-color="#FD3030"/>
<stop offset="1" stop-color="#E4DD31"/>
</linearGradient>
<linearGradient id="paint2_linear_46_221" x1="8.99831" y1="36.0018" x2="8.99831" y2="53.9982" gradientUnits="userSpaceOnUse">
<stop stop-color="#FD3030"/>
<stop offset="1" stop-color="#E4DD31"/>
</linearGradient>
<linearGradient id="paint3_linear_46_221" x1="12.375" y1="27" x2="12.375" y2="33.75" gradientUnits="userSpaceOnUse">
<stop stop-color="#FD3030"/>
<stop offset="1" stop-color="#E4DD31"/>
</linearGradient>
<linearGradient id="paint4_linear_46_221" x1="3.375" y1="18" x2="3.375" y2="24.75" gradientUnits="userSpaceOnUse">
<stop stop-color="#FD3030"/>
<stop offset="1" stop-color="#E4DD31"/>
</linearGradient>
<linearGradient id="paint5_linear_46_221" x1="12.375" y1="9" x2="12.375" y2="15.75" gradientUnits="userSpaceOnUse">
<stop stop-color="#FD3030"/>
<stop offset="1" stop-color="#E4DD31"/>
</linearGradient>
<linearGradient id="paint6_linear_46_221" x1="3.375" y1="0" x2="3.375" y2="6.75" gradientUnits="userSpaceOnUse">
<stop stop-color="#FD3030"/>
<stop offset="1" stop-color="#E4DD31"/>
</linearGradient>
<linearGradient id="paint7_linear_46_221" x1="50.625" y1="27" x2="50.625" y2="33.75" gradientUnits="userSpaceOnUse">
<stop stop-color="#FD3030"/>
<stop offset="1" stop-color="#E4DD31"/>
</linearGradient>
<linearGradient id="paint8_linear_46_221" x1="41.625" y1="18" x2="41.625" y2="24.75" gradientUnits="userSpaceOnUse">
<stop stop-color="#FD3030"/>
<stop offset="1" stop-color="#E4DD31"/>
</linearGradient>
<linearGradient id="paint9_linear_46_221" x1="50.625" y1="9" x2="50.625" y2="15.75" gradientUnits="userSpaceOnUse">
<stop stop-color="#FD3030"/>
<stop offset="1" stop-color="#E4DD31"/>
</linearGradient>
<linearGradient id="paint10_linear_46_221" x1="41.625" y1="-9.53674e-07" x2="41.625" y2="6.75" gradientUnits="userSpaceOnUse">
<stop stop-color="#FD3030"/>
<stop offset="1" stop-color="#E4DD31"/>
</linearGradient>
<linearGradient id="paint11_linear_46_221" x1="32.625" y1="47.25" x2="32.625" y2="54" gradientUnits="userSpaceOnUse">
<stop stop-color="#FD3030"/>
<stop offset="1" stop-color="#E4DD31"/>
</linearGradient>
<linearGradient id="paint12_linear_46_221" x1="23.625" y1="38.25" x2="23.625" y2="45" gradientUnits="userSpaceOnUse">
<stop stop-color="#FD3030"/>
<stop offset="1" stop-color="#E4DD31"/>
</linearGradient>
<linearGradient id="paint13_linear_46_221" x1="32.625" y1="29.25" x2="32.625" y2="36" gradientUnits="userSpaceOnUse">
<stop stop-color="#FD3030"/>
<stop offset="1" stop-color="#E4DD31"/>
</linearGradient>
<linearGradient id="paint14_linear_46_221" x1="23.625" y1="20.25" x2="23.625" y2="27" gradientUnits="userSpaceOnUse">
<stop stop-color="#FD3030"/>
<stop offset="1" stop-color="#E4DD31"/>
</linearGradient>
<clipPath id="clip0_46_221">
<rect width="54" height="54" fill="white"/>
</clipPath>
</defs>
</svg>
