<svg width="61" height="56" viewBox="0 0 61 56" fill="none" xmlns="http://www.w3.org/2000/svg">
<path d="M43.7621 0C40.947 0.0437873 38.1933 0.829633 35.779 2.27818C33.3648 3.72672 31.3755 5.78667 30.0121 8.25C28.6487 5.78667 26.6594 3.72672 24.2452 2.27818C21.831 0.829633 19.0772 0.0437873 16.2621 0C11.7745 0.194977 7.54637 2.15814 4.50156 5.46058C1.45675 8.76303 -0.157274 13.1363 0.0121028 17.625C0.0121028 34.5625 27.4021 54.125 28.5671 54.955L30.0121 55.9775L31.4571 54.955C32.6221 54.13 60.0121 34.5625 60.0121 17.625C60.1815 13.1363 58.5675 8.76303 55.5226 5.46058C52.4778 2.15814 48.2498 0.194977 43.7621 0Z" fill="url(#paint0_linear_46_223)"/>
<defs>
<linearGradient id="paint0_linear_46_223" x1="30.0121" y1="0" x2="30.0121" y2="55.9775" gradientUnits="userSpaceOnUse">
<stop stop-color="#FF003D"/>
<stop offset="1" stop-color="#531222"/>
</linearGradient>
</defs>
</svg>
