<svg width="60" height="60" viewBox="0 0 60 60" fill="none" xmlns="http://www.w3.org/2000/svg">
<path d="M50.5415 44.2743C55.4882 38.5429 57.7972 30.6329 56.8803 22.9089C55.9168 14.7904 51.438 6.64421 44.5787 2.67109C41.3535 0.80298 37.5418 -0.211021 33.8628 0.0369363C32.8015 0.108513 31.7479 0.588063 31.6317 1.88562C31.4603 3.79776 33.1114 4.03061 34.4316 4.03972C42.0728 4.09219 48.1072 10.1044 50.6932 17.3999C53.4248 25.1063 45.7136 31.2434 40.2661 37.1772L16.0448 11.37L28.2851 7.88287C29.7441 6.3283 29.2666 4.80196 27.224 4.49104L18.7356 3.19904C18.4474 3.15516 18.1534 3.18338 17.8772 3.28149C17.6009 3.3796 17.3499 3.5449 17.1439 3.76429L4.12689 17.6336C3.77512 18.0085 3.5775 18.5168 3.5775 19.0469C3.5775 19.5769 3.77512 20.0853 4.12689 20.4601L8.97742 25.6282C9.32921 26.003 9.80632 26.2136 10.3038 26.2136C10.8013 26.2136 11.2784 26.003 11.6302 25.6282L17.0301 19.8747L28.6481 32.2534L40.2661 44.632C34.3971 47.2721 27.5429 46.5594 22.2315 42.809C20.0404 41.2618 18.4057 39.1892 16.6138 37.1772C15.1084 35.4871 13.3047 33.9121 11.025 35.2243C10.3397 35.6258 9.7875 36.243 9.44398 36.9915C9.10046 37.7401 8.98239 38.5835 9.10592 39.4063C9.32158 40.7942 10.1813 41.6299 11.1412 42.4812L1.0856 53.1952C-0.275546 54.6456 -0.369806 57.0431 0.876852 58.6071C2.27533 60.3616 4.86239 60.4772 6.39119 58.8483L16.8591 47.6951C24.9597 53.9139 36.0063 54.716 44.6708 49.3252L53.6087 58.8483C55.1372 60.4769 57.7246 60.3616 59.1231 58.6071C60.3697 57.0429 60.2757 54.6458 58.9143 53.1952L50.5415 44.2743Z" fill="url(#paint0_linear_47_226)"/>
<defs>
<linearGradient id="paint0_linear_47_226" x1="30" y1="0" x2="30" y2="60" gradientUnits="userSpaceOnUse">
<stop stop-color="#DD0E0E"/>
<stop offset="1" stop-color="#580F0F"/>
</linearGradient>
</defs>
</svg>
