<svg width="60" height="56" viewBox="0 0 60 56" fill="none" xmlns="http://www.w3.org/2000/svg">
<path d="M47.5 10.5H40V8C40 6.01088 39.2098 4.10322 37.8033 2.6967C36.3968 1.29018 34.4891 0.499999 32.5 0.499999H27.5C25.5109 0.499999 23.6032 1.29018 22.1967 2.6967C20.7902 4.10322 20 6.01088 20 8V10.5H12.5C9.18601 10.504 6.00889 11.8222 3.66555 14.1655C1.3222 16.5089 0.00396964 19.686 0 23L0 43C0.00396964 46.314 1.3222 49.4911 3.66555 51.8345C6.00889 54.1778 9.18601 55.496 12.5 55.5H47.5C50.814 55.496 53.9911 54.1778 56.3345 51.8345C58.6778 49.4911 59.996 46.314 60 43V23C59.996 19.686 58.6778 16.5089 56.3345 14.1655C53.9911 11.8222 50.814 10.504 47.5 10.5ZM25 8C25 7.33696 25.2634 6.70107 25.7322 6.23223C26.2011 5.76339 26.837 5.5 27.5 5.5H32.5C33.163 5.5 33.7989 5.76339 34.2678 6.23223C34.7366 6.70107 35 7.33696 35 8V10.5H25V8ZM37.5 35.5H32.5V40.5C32.5 41.163 32.2366 41.7989 31.7678 42.2678C31.2989 42.7366 30.663 43 30 43C29.337 43 28.7011 42.7366 28.2322 42.2678C27.7634 41.7989 27.5 41.163 27.5 40.5V35.5H22.5C21.837 35.5 21.2011 35.2366 20.7322 34.7678C20.2634 34.2989 20 33.663 20 33C20 32.337 20.2634 31.7011 20.7322 31.2322C21.2011 30.7634 21.837 30.5 22.5 30.5H27.5V25.5C27.5 24.837 27.7634 24.2011 28.2322 23.7322C28.7011 23.2634 29.337 23 30 23C30.663 23 31.2989 23.2634 31.7678 23.7322C32.2366 24.2011 32.5 24.837 32.5 25.5V30.5H37.5C38.163 30.5 38.7989 30.7634 39.2678 31.2322C39.7366 31.7011 40 32.337 40 33C40 33.663 39.7366 34.2989 39.2678 34.7678C38.7989 35.2366 38.163 35.5 37.5 35.5Z" fill="url(#paint0_linear_18_259)"/>
<defs>
<linearGradient id="paint0_linear_18_259" x1="-3.5" y1="3.5" x2="60" y2="65.5" gradientUnits="userSpaceOnUse">
<stop stop-color="#EED3D3"/>
<stop offset="1" stop-color="#9D0000"/>
</linearGradient>
</defs>
</svg>
