<svg width="181" height="166" viewBox="0 0 181 166" fill="none" xmlns="http://www.w3.org/2000/svg">
<g filter="url(#filter0_di_12_384)">
<path d="M150.058 108.586C148.966 108.586 147.639 109.12 146.66 109.61C144.698 108.639 142.824 108.376 140.971 108.818C141.811 98.6272 148.222 98.4935 148.291 98.4935C149.653 98.4935 150.763 99.6263 150.765 101.017C149.401 101.017 148.291 102.147 148.291 103.54C148.291 104.932 149.398 106.063 150.763 106.063C153.489 106.063 155.705 103.799 155.705 101.017C155.705 96.8434 152.379 93.4474 148.291 93.4474C145.521 93.4474 141.163 95.0193 138.43 99.9139C136.967 97.2143 134.869 95.1278 132.096 93.7149C130.872 93.0892 129.389 93.5988 128.779 94.8427C128.169 96.089 128.663 97.6054 129.884 98.2286C133.46 100.053 135.42 103.532 135.842 108.818C134.026 108.386 132.195 108.623 130.274 109.549C129.202 108.911 128.018 108.588 126.75 108.588C119.808 108.586 108.748 118.978 108.748 131.293C108.748 143.608 119.832 154 126.794 154C127.926 154 128.994 153.733 129.983 153.203C131.915 154.073 133.841 154.189 135.82 153.533C137.538 154.154 139.273 154.154 140.993 153.533C142.975 154.189 144.9 154.073 146.83 153.203C147.819 153.733 148.887 154 150.019 154C156.981 154 168.065 143.608 168.065 131.293C168.065 118.978 157.003 108.586 150.058 108.586ZM142.32 125.883L145.311 119.778C145.669 119.044 146.361 118.678 147.055 118.678C147.75 118.678 148.439 119.044 148.8 119.778L151.791 125.883C152.438 127.206 151.497 128.765 150.046 128.765H144.065C142.617 128.765 141.673 127.208 142.32 125.883ZM125.02 125.888L128.01 119.783C128.369 119.049 129.061 118.683 129.755 118.683C130.45 118.683 131.139 119.049 131.5 119.783L134.491 125.888C135.138 127.213 134.196 128.77 132.746 128.77H126.765C125.317 128.77 124.372 127.213 125.02 125.888ZM155.231 135.077C153.58 136.589 148.336 139.566 145.82 140.797V140.123C145.82 138.731 144.712 137.6 143.348 137.6C141.984 137.6 140.877 138.731 140.877 140.123V142.414C140.071 142.551 139.251 142.646 138.405 142.646C129.755 142.646 124.696 137.956 121.59 135.108C120.495 134.103 121.407 132.289 122.85 132.587C124.249 132.877 129.024 134.462 130.991 134.681V136.339C130.991 137.732 132.098 138.862 133.462 138.862C134.827 138.862 135.934 137.732 135.934 136.339V135.029C136.732 135.057 137.548 135.077 138.405 135.077C143.766 135.077 151.067 133.177 153.993 132.569C155.409 132.277 156.306 134.093 155.231 135.077Z" fill="#EB5210"/>
</g>
<g filter="url(#filter1_dd_12_384)">
<path d="M165.364 56.374L153.829 39.0732H160.42L150.534 24.2439H155.954L142.648 3.73011C141.535 2.65508 140.049 2.05418 138.502 2.05418C136.955 2.05418 135.468 2.65508 134.356 3.73011L120.972 24.2439H126.469L116.583 39.0732H123.172L111.64 56.374H136.031V61.3171H140.974V56.374H165.364ZM140.878 46.4878C140.389 46.4878 139.911 46.3429 139.505 46.0713C139.098 45.7997 138.782 45.4137 138.595 44.9621C138.408 44.5105 138.359 44.0135 138.454 43.5341C138.549 43.0547 138.785 42.6143 139.13 42.2686C139.476 41.923 139.916 41.6876 140.396 41.5922C140.875 41.4969 141.372 41.5458 141.824 41.7329C142.275 41.9199 142.661 42.2367 142.933 42.6432C143.205 43.0496 143.35 43.5275 143.35 44.0163C143.35 44.6718 143.089 45.3004 142.626 45.7639C142.162 46.2274 141.533 46.4878 140.878 46.4878ZM148.293 46.4878C148.781 46.4878 149.259 46.6328 149.666 46.9044C150.072 47.1759 150.389 47.5619 150.576 48.0136C150.763 48.4652 150.812 48.9621 150.717 49.4416C150.621 49.921 150.386 50.3614 150.04 50.707C149.695 51.0527 149.254 51.2881 148.775 51.3834C148.295 51.4788 147.798 51.4299 147.347 51.2428C146.895 51.0557 146.509 50.7389 146.238 50.3325C145.966 49.9261 145.821 49.4482 145.821 48.9594C145.821 48.3039 146.081 47.6752 146.545 47.2117C147.008 46.7482 147.637 46.4878 148.293 46.4878ZM145.821 29.187C146.31 29.187 146.788 29.332 147.194 29.6036C147.601 29.8751 147.917 30.2611 148.104 30.7127C148.292 31.1644 148.34 31.6613 148.245 32.1407C148.15 32.6202 147.914 33.0606 147.569 33.4062C147.223 33.7519 146.783 33.9873 146.303 34.0826C145.824 34.178 145.327 34.129 144.875 33.942C144.424 33.7549 144.038 33.4381 143.766 33.0317C143.494 32.6252 143.35 32.1474 143.35 31.6586C143.35 31.0031 143.61 30.3744 144.073 29.9109C144.537 29.4474 145.166 29.187 145.821 29.187ZM140.878 14.3578C141.367 14.3578 141.845 14.5027 142.251 14.7743C142.658 15.0459 142.974 15.4319 143.161 15.8835C143.348 16.3351 143.397 16.832 143.302 17.3115C143.207 17.7909 142.971 18.2313 142.626 18.5769C142.28 18.9226 141.84 19.158 141.36 19.2534C140.881 19.3487 140.384 19.2998 139.932 19.1127C139.481 18.9256 139.095 18.6089 138.823 18.2024C138.551 17.796 138.406 17.3181 138.406 16.8293C138.406 16.1738 138.667 15.5452 139.13 15.0817C139.594 14.6181 140.222 14.3578 140.878 14.3578ZM128.52 51.4309C128.031 51.4309 127.554 51.286 127.147 51.0144C126.741 50.7428 126.424 50.3568 126.237 49.9052C126.05 49.4536 126.001 48.9566 126.096 48.4772C126.192 47.9978 126.427 47.5574 126.773 47.2117C127.118 46.8661 127.559 46.6307 128.038 46.5353C128.518 46.44 129.014 46.4889 129.466 46.676C129.918 46.863 130.304 47.1798 130.575 47.5863C130.847 47.9927 130.992 48.4706 130.992 48.9594C130.992 49.6149 130.731 50.2435 130.268 50.707C129.804 51.1705 129.176 51.4309 128.52 51.4309ZM130.992 39.0732C130.503 39.0732 130.025 38.9282 129.619 38.6567C129.212 38.3851 128.895 37.9991 128.708 37.5475C128.521 37.0959 128.472 36.5989 128.568 36.1195C128.663 35.64 128.899 35.1997 129.244 34.854C129.59 34.5084 130.03 34.273 130.51 34.1776C130.989 34.0822 131.486 34.1312 131.938 34.3182C132.389 34.5053 132.775 34.8221 133.047 35.2285C133.318 35.635 133.463 36.1128 133.463 36.6017C133.463 37.2571 133.203 37.8858 132.739 38.3493C132.276 38.8128 131.647 39.0732 130.992 39.0732ZM133.463 26.7155C133.463 26.2267 133.608 25.7488 133.88 25.3424C134.151 24.9359 134.537 24.6191 134.989 24.4321C135.441 24.245 135.938 24.1961 136.417 24.2914C136.897 24.3868 137.337 24.6222 137.683 24.9678C138.028 25.3135 138.264 25.7539 138.359 26.2333C138.454 26.7127 138.405 27.2097 138.218 27.6613C138.031 28.1129 137.714 28.4989 137.308 28.7705C136.902 29.0421 136.424 29.187 135.935 29.187C135.279 29.187 134.651 28.9266 134.187 28.4631C133.724 27.9996 133.463 27.371 133.463 26.7155Z" fill="url(#paint0_linear_12_384)"/>
</g>
<g clip-path="url(#clip0_12_384)">
<path d="M53.6523 44.7175C52.5792 44.4107 51.602 43.8356 50.8128 43.0463C50.0236 42.2571 49.4484 41.2799 49.1416 40.2068C48.9802 39.6433 48.6398 39.1476 48.1718 38.7948C47.7038 38.442 47.1336 38.2511 46.5475 38.2511C45.9614 38.2511 45.3912 38.442 44.9231 38.7948C44.4551 39.1476 44.1147 39.6433 43.9534 40.2068C43.6465 41.2799 43.0714 42.2571 42.2822 43.0463C41.493 43.8356 40.5157 44.4107 39.4426 44.7175C38.8791 44.8789 38.3835 45.2193 38.0307 45.6873C37.6778 46.1553 37.487 46.7255 37.487 47.3116C37.487 47.8978 37.6778 48.4679 38.0307 48.936C38.3835 49.404 38.8791 49.7444 39.4426 49.9057C40.5157 50.2126 41.493 50.7877 42.2822 51.5769C43.0714 52.3661 43.6465 53.3434 43.9534 54.4165C44.1147 54.98 44.4551 55.4756 44.9231 55.8285C45.3912 56.1813 45.9614 56.3721 46.5475 56.3721C47.1336 56.3721 47.7038 56.1813 48.1718 55.8285C48.6398 55.4756 48.9802 54.98 49.1416 54.4165C49.4484 53.3434 50.0236 52.3661 50.8128 51.5769C51.602 50.7877 52.5792 50.2126 53.6523 49.9057C54.2158 49.7444 54.7115 49.404 55.0643 48.936C55.4171 48.4679 55.608 47.8978 55.608 47.3116C55.608 46.7255 55.4171 46.1553 55.0643 45.6873C54.7115 45.2193 54.2158 44.8789 53.6523 44.7175Z" fill="url(#paint1_linear_12_384)"/>
<path d="M35.5299 8.46823C34.4564 8.16173 33.4787 7.58672 32.6891 6.79749C31.8994 6.00826 31.3239 5.03083 31.0169 3.95746C30.8556 3.39397 30.5152 2.89834 30.0471 2.5455C29.5791 2.19266 29.0089 2.00182 28.4228 2.00182C27.8367 2.00182 27.2665 2.19266 26.7985 2.5455C26.3305 2.89834 25.99 3.39397 25.8287 3.95746C25.5219 5.03056 24.9467 6.00782 24.1575 6.79703C23.3683 7.58624 22.3911 8.16139 21.3179 8.46823C20.7545 8.62955 20.2588 8.96996 19.906 9.43799C19.5532 9.90601 19.3623 10.4762 19.3623 11.0623C19.3623 11.6484 19.5532 12.2186 19.906 12.6867C20.2588 13.1547 20.7545 13.4951 21.3179 13.6564C22.3911 13.9633 23.3683 14.5384 24.1575 15.3276C24.9467 16.1168 25.5219 17.0941 25.8287 18.1672C25.99 18.7307 26.3305 19.2263 26.7985 19.5791C27.2665 19.932 27.8367 20.1228 28.4228 20.1228C29.0089 20.1228 29.5791 19.932 30.0471 19.5791C30.5152 19.2263 30.8556 18.7307 31.0169 18.1672C31.3237 17.0941 31.8989 16.1168 32.6881 15.3276C33.4773 14.5384 34.4546 13.9633 35.5277 13.6564C36.0912 13.4953 36.587 13.1551 36.9401 12.6873C37.2931 12.2194 37.4842 11.6493 37.4844 11.0632C37.4847 10.4771 37.2941 9.90678 36.9415 9.43861C36.5888 8.97043 36.0934 8.6298 35.5299 8.46823Z" fill="url(#paint2_linear_12_384)"/>
<path d="M3.19102 49.9057C4.26413 50.2126 5.24138 50.7877 6.03059 51.5769C6.8198 52.3661 7.39496 53.3434 7.70179 54.4165C7.86312 54.98 8.20353 55.4756 8.67155 55.8285C9.13958 56.1813 9.70976 56.3721 10.2959 56.3721C10.882 56.3721 11.4522 56.1813 11.9202 55.8285C12.3882 55.4756 12.7287 54.98 12.89 54.4165C13.1968 53.3434 13.772 52.3661 14.5612 51.5769C15.3504 50.7877 16.3276 50.2126 17.4008 49.9057C17.9642 49.7444 18.4599 49.404 18.8127 48.936C19.1655 48.4679 19.3564 47.8978 19.3564 47.3116C19.3564 46.7255 19.1655 46.1553 18.8127 45.6873C18.4599 45.2193 17.9642 44.8789 17.4008 44.7175C16.3276 44.4107 15.3504 43.8356 14.5612 43.0463C13.772 42.2571 13.1968 41.2799 12.89 40.2068C12.7287 39.6433 12.3882 39.1476 11.9202 38.7948C11.4522 38.442 10.882 38.2511 10.2959 38.2511C9.70976 38.2511 9.13958 38.442 8.67155 38.7948C8.20353 39.1476 7.86312 39.6433 7.70179 40.2068C7.39516 41.2796 6.82035 42.2567 6.03156 43.0459C5.24276 43.8351 4.26597 44.4104 3.19328 44.7175C2.62973 44.8786 2.13394 45.2188 1.7809 45.6867C1.42786 46.1546 1.23677 46.7247 1.23651 47.3108C1.23626 47.8969 1.42685 48.4672 1.77949 48.9354C2.13212 49.4035 2.6276 49.7442 3.19102 49.9057Z" fill="url(#paint3_linear_12_384)"/>
<path d="M13.6965 35.9837C15.5734 35.9837 17.0949 34.4622 17.0949 32.5854C17.0949 30.7085 15.5734 29.187 13.6965 29.187C11.8197 29.187 10.2982 30.7085 10.2982 32.5854C10.2982 34.4622 11.8197 35.9837 13.6965 35.9837Z" fill="url(#paint4_linear_12_384)"/>
<path d="M4.63421 26.9214C6.51108 26.9214 8.03259 25.3999 8.03259 23.523C8.03259 21.6462 6.51108 20.1247 4.63421 20.1247C2.75734 20.1247 1.23584 21.6462 1.23584 23.523C1.23584 25.3999 2.75734 26.9214 4.63421 26.9214Z" fill="url(#paint5_linear_12_384)"/>
<path d="M13.6965 17.8591C15.5734 17.8591 17.0949 16.3376 17.0949 14.4607C17.0949 12.5838 15.5734 11.0623 13.6965 11.0623C11.8197 11.0623 10.2982 12.5838 10.2982 14.4607C10.2982 16.3376 11.8197 17.8591 13.6965 17.8591Z" fill="url(#paint6_linear_12_384)"/>
<path d="M4.63421 8.79675C6.51108 8.79675 8.03259 7.27524 8.03259 5.39837C8.03259 3.5215 6.51108 2 4.63421 2C2.75734 2 1.23584 3.5215 1.23584 5.39837C1.23584 7.27524 2.75734 8.79675 4.63421 8.79675Z" fill="url(#paint7_linear_12_384)"/>
<path d="M52.2115 35.9837C54.0883 35.9837 55.6098 34.4622 55.6098 32.5854C55.6098 30.7085 54.0883 29.187 52.2115 29.187C50.3346 29.187 48.8131 30.7085 48.8131 32.5854C48.8131 34.4622 50.3346 35.9837 52.2115 35.9837Z" fill="url(#paint8_linear_12_384)"/>
<path d="M43.1491 26.9214C45.026 26.9214 46.5475 25.3999 46.5475 23.523C46.5475 21.6462 45.026 20.1247 43.1491 20.1247C41.2722 20.1247 39.7507 21.6462 39.7507 23.523C39.7507 25.3999 41.2722 26.9214 43.1491 26.9214Z" fill="url(#paint9_linear_12_384)"/>
<path d="M52.2115 17.8591C54.0883 17.8591 55.6098 16.3376 55.6098 14.4607C55.6098 12.5838 54.0883 11.0623 52.2115 11.0623C50.3346 11.0623 48.8131 12.5838 48.8131 14.4607C48.8131 16.3376 50.3346 17.8591 52.2115 17.8591Z" fill="url(#paint10_linear_12_384)"/>
<path d="M43.1491 8.79675C45.026 8.79675 46.5475 7.27524 46.5475 5.39837C46.5475 3.5215 45.026 2 43.1491 2C41.2722 2 39.7507 3.5215 39.7507 5.39837C39.7507 7.27524 41.2722 8.79675 43.1491 8.79675Z" fill="url(#paint11_linear_12_384)"/>
<path d="M34.0868 56.374C35.9637 56.374 37.4852 54.8525 37.4852 52.9756C37.4852 51.0987 35.9637 49.5772 34.0868 49.5772C32.2099 49.5772 30.6884 51.0987 30.6884 52.9756C30.6884 54.8525 32.2099 56.374 34.0868 56.374Z" fill="url(#paint12_linear_12_384)"/>
<path d="M25.0245 47.3117C26.9013 47.3117 28.4228 45.7902 28.4228 43.9133C28.4228 42.0364 26.9013 40.5149 25.0245 40.5149C23.1476 40.5149 21.6261 42.0364 21.6261 43.9133C21.6261 45.7902 23.1476 47.3117 25.0245 47.3117Z" fill="url(#paint13_linear_12_384)"/>
<path d="M34.0868 38.2493C35.9637 38.2493 37.4852 36.7278 37.4852 34.8509C37.4852 32.9741 35.9637 31.4526 34.0868 31.4526C32.2099 31.4526 30.6884 32.9741 30.6884 34.8509C30.6884 36.7278 32.2099 38.2493 34.0868 38.2493Z" fill="url(#paint14_linear_12_384)"/>
<path d="M25.0245 29.187C26.9013 29.187 28.4228 27.6655 28.4228 25.7886C28.4228 23.9117 26.9013 22.3902 25.0245 22.3902C23.1476 22.3902 21.6261 23.9117 21.6261 25.7886C21.6261 27.6655 23.1476 29.187 25.0245 29.187Z" fill="url(#paint15_linear_12_384)"/>
</g>
<path d="M4.72802 106.61H1.57605V122.37H4.72802V106.61Z" fill="#2196F3"/>
<path d="M11.0319 106.61H7.87988V122.37H11.0319V106.61Z" fill="#2196F3"/>
<path d="M17.3359 106.61H14.1839V122.37H17.3359V106.61Z" fill="#2196F3"/>
<path d="M23.6398 106.61H20.4878V122.37H23.6398V106.61Z" fill="#2196F3"/>
<path d="M31.5197 103.458H28.3677V123.946H31.5197V103.458Z" fill="#2196F3"/>
<path d="M39.3997 106.61H36.2477V122.37H39.3997V106.61Z" fill="#2196F3"/>
<path d="M45.7037 106.61H42.5517V122.37H45.7037V106.61Z" fill="#2196F3"/>
<path d="M52.0076 106.61H48.8556V122.37H52.0076V106.61Z" fill="#2196F3"/>
<path d="M58.3114 106.61H55.1595V122.37H58.3114V106.61Z" fill="#2196F3"/>
<path d="M31.5197 100.306C31.5197 101.178 30.8137 101.882 29.9437 101.882C29.0738 101.882 28.3677 101.178 28.3677 100.306C28.3677 99.4349 29.9437 97.1545 29.9437 97.1545C29.9437 97.1545 31.5197 99.4349 31.5197 100.306Z" fill="#FFC107"/>
<path d="M23.6398 103.458C23.6398 104.33 22.9337 105.034 22.0638 105.034C21.1938 105.034 20.4878 104.33 20.4878 103.458C20.4878 102.587 22.0638 100.306 22.0638 100.306C22.0638 100.306 23.6398 102.587 23.6398 103.458Z" fill="#FFC107"/>
<path d="M17.3359 103.458C17.3359 104.33 16.6298 105.034 15.7599 105.034C14.8899 105.034 14.1839 104.33 14.1839 103.458C14.1839 102.587 15.7599 100.306 15.7599 100.306C15.7599 100.306 17.3359 102.587 17.3359 103.458Z" fill="#FFC107"/>
<path d="M11.0319 103.458C11.0319 104.33 10.3258 105.034 9.45587 105.034C8.58592 105.034 7.87988 104.33 7.87988 103.458C7.87988 102.587 9.45587 100.306 9.45587 100.306C9.45587 100.306 11.0319 102.587 11.0319 103.458Z" fill="#FFC107"/>
<path d="M4.72802 103.458C4.72802 104.33 4.02198 105.034 3.15204 105.034C2.28209 105.034 1.57605 104.33 1.57605 103.458C1.57605 102.587 3.15204 100.306 3.15204 100.306C3.15204 100.306 4.72802 102.587 4.72802 103.458Z" fill="#FFC107"/>
<path d="M58.3114 103.458C58.3114 104.33 57.607 105.034 56.7354 105.034C55.8639 105.034 55.1595 104.33 55.1595 103.458C55.1595 102.587 56.7354 100.306 56.7354 100.306C56.7354 100.306 58.3114 102.587 58.3114 103.458Z" fill="#FFC107"/>
<path d="M52.0076 103.458C52.0076 104.33 51.3031 105.034 50.4316 105.034C49.5601 105.034 48.8556 104.33 48.8556 103.458C48.8556 102.587 50.4316 100.306 50.4316 100.306C50.4316 100.306 52.0076 102.587 52.0076 103.458Z" fill="#FFC107"/>
<path d="M45.7037 103.458C45.7037 104.33 44.9992 105.034 44.1277 105.034C43.2562 105.034 42.5517 104.33 42.5517 103.458C42.5517 102.587 44.1277 100.306 44.1277 100.306C44.1277 100.306 45.7037 102.587 45.7037 103.458Z" fill="#FFC107"/>
<path d="M39.3997 103.458C39.3997 104.33 38.6952 105.034 37.8237 105.034C36.9522 105.034 36.2477 104.33 36.2477 103.458C36.2477 102.587 37.8237 100.306 37.8237 100.306C37.8237 100.306 39.3997 102.587 39.3997 103.458Z" fill="#FFC107"/>
<path d="M25.2158 122.37H0V125.522H25.2158V122.37Z" fill="#FFC107"/>
<path d="M59.8875 122.37H34.6717V125.522H59.8875V122.37Z" fill="#FFC107"/>
<path d="M56.7353 123.946V128.674C56.7353 137.378 49.6797 144.434 40.9755 144.434H18.9117C10.2075 144.434 3.15186 137.378 3.15186 128.674V123.946" stroke="#FFC107" stroke-width="2"/>
<path d="M50.4315 123.946V128.674C50.4315 134.767 45.4923 139.706 39.3996 139.706H20.4878C14.395 139.706 9.45587 134.767 9.45587 128.674V123.946" stroke="#FFC107" stroke-width="2"/>
<path d="M44.1277 124.072V128.674C44.1277 132.156 41.3051 134.978 37.8238 134.978H22.0639C18.5826 134.978 15.76 132.156 15.76 128.674V123.946" stroke="#FFC107" stroke-width="2"/>
<path d="M37.8236 123.946V128.674C37.8236 129.546 37.1192 130.25 36.2476 130.25H23.6398C22.7698 130.25 22.0638 129.546 22.0638 128.674V123.946" stroke="#FFC107" stroke-width="2"/>
<path d="M31.5197 119.218H28.3677V153.89H31.5197V119.218Z" fill="#FFC107"/>
<path d="M33.0957 117.642H26.7917V120.794H33.0957V117.642Z" fill="#FFC107"/>
<path d="M36.2476 150.738H23.6398C21.8999 150.738 20.4878 152.15 20.4878 153.89H39.3996C39.3996 152.15 37.9875 150.738 36.2476 150.738Z" fill="#DD9F05"/>
<path d="M39.3997 125.522H36.2477V128.674H39.3997V125.522Z" fill="#DD9F05"/>
<path d="M31.5197 120.794H28.3677V123.946H31.5197V120.794Z" fill="#DD9F05"/>
<path d="M45.7037 125.522H42.5517V128.674H45.7037V125.522Z" fill="#DD9F05"/>
<path d="M52.0076 125.522H48.8556V128.674H52.0076V125.522Z" fill="#DD9F05"/>
<path d="M58.3114 125.522H55.1595V128.674H58.3114V125.522Z" fill="#DD9F05"/>
<path d="M4.72802 125.522H1.57605V128.674H4.72802V125.522Z" fill="#DD9F05"/>
<path d="M11.0319 125.522H7.87988V128.674H11.0319V125.522Z" fill="#DD9F05"/>
<path d="M17.3359 125.522H14.1839V128.674H17.3359V125.522Z" fill="#DD9F05"/>
<path d="M23.6398 125.522H20.4878V128.674H23.6398V125.522Z" fill="#DD9F05"/>
<g filter="url(#filter2_dd_12_384)">
<path d="M80.3252 14.3577C67.6157 14.3577 55.1917 18.0903 44.6242 25.0834C34.0566 32.0765 25.8202 42.016 20.9565 53.6451C16.0928 65.2742 14.8203 78.0706 17.2998 90.416C19.7793 102.761 25.8995 114.101 34.8864 123.002C43.8733 131.902 55.3234 137.964 67.7887 140.419C80.2539 142.875 93.1745 141.615 104.916 136.798C116.658 131.981 126.695 123.824 133.756 113.358C140.817 102.892 144.585 90.5872 144.585 78C144.567 61.1266 137.791 44.9495 125.744 33.0183C113.697 21.087 97.3624 14.376 80.3252 14.3577ZM80.3252 30.2683C90.3264 30.2694 100.077 33.3701 108.209 39.1358L41.0837 105.61C35.945 98.479 32.8905 90.083 32.2559 81.3446C31.6213 72.6062 33.4311 63.8637 37.4865 56.0776C41.5418 48.2916 47.6858 41.7633 55.2432 37.2101C62.8007 32.6569 71.4792 30.255 80.3252 30.2683ZM80.3252 125.732C70.3255 125.731 60.5769 122.63 52.447 116.864L119.567 50.3845C124.707 57.5157 127.763 65.9123 128.398 74.6514C129.033 83.3906 127.224 92.1341 123.168 99.9211C119.113 107.708 112.968 114.237 105.41 118.791C97.8516 123.344 89.1721 125.746 80.3252 125.732Z" fill="#1C1C1C"/>
</g>
<defs>
<filter id="filter0_di_12_384" x="104.748" y="89.4472" width="75.3171" height="76.5528" filterUnits="userSpaceOnUse" color-interpolation-filters="sRGB">
<feFlood flood-opacity="0" result="BackgroundImageFix"/>
<feColorMatrix in="SourceAlpha" type="matrix" values="0 0 0 0 0 0 0 0 0 0 0 0 0 0 0 0 0 0 127 0" result="hardAlpha"/>
<feOffset dx="4" dy="4"/>
<feGaussianBlur stdDeviation="4"/>
<feComposite in2="hardAlpha" operator="out"/>
<feColorMatrix type="matrix" values="0 0 0 0 0 0 0 0 0 0 0 0 0 0 0 0 0 0 0.25 0"/>
<feBlend mode="normal" in2="BackgroundImageFix" result="effect1_dropShadow_12_384"/>
<feBlend mode="normal" in="SourceGraphic" in2="effect1_dropShadow_12_384" result="shape"/>
<feColorMatrix in="SourceAlpha" type="matrix" values="0 0 0 0 0 0 0 0 0 0 0 0 0 0 0 0 0 0 127 0" result="hardAlpha"/>
<feOffset dx="4" dy="4"/>
<feGaussianBlur stdDeviation="4"/>
<feComposite in2="hardAlpha" operator="arithmetic" k2="-1" k3="1"/>
<feColorMatrix type="matrix" values="0 0 0 0 0 0 0 0 0 0 0 0 0 0 0 0 0 0 0.25 0"/>
<feBlend mode="normal" in2="shape" result="effect2_innerShadow_12_384"/>
</filter>
<filter id="filter1_dd_12_384" x="109.64" y="0.054184" width="61.724" height="67.2629" filterUnits="userSpaceOnUse" color-interpolation-filters="sRGB">
<feFlood flood-opacity="0" result="BackgroundImageFix"/>
<feColorMatrix in="SourceAlpha" type="matrix" values="0 0 0 0 0 0 0 0 0 0 0 0 0 0 0 0 0 0 127 0" result="hardAlpha"/>
<feOffset dx="2" dy="2"/>
<feGaussianBlur stdDeviation="2"/>
<feComposite in2="hardAlpha" operator="out"/>
<feColorMatrix type="matrix" values="0 0 0 0 0 0 0 0 0 0 0 0 0 0 0 0 0 0 0.25 0"/>
<feBlend mode="normal" in2="BackgroundImageFix" result="effect1_dropShadow_12_384"/>
<feColorMatrix in="SourceAlpha" type="matrix" values="0 0 0 0 0 0 0 0 0 0 0 0 0 0 0 0 0 0 127 0" result="hardAlpha"/>
<feOffset dx="2" dy="2"/>
<feGaussianBlur stdDeviation="2"/>
<feComposite in2="hardAlpha" operator="out"/>
<feColorMatrix type="matrix" values="0 0 0 0 0 0 0 0 0 0 0 0 0 0 0 0 0 0 0.25 0"/>
<feBlend mode="normal" in2="effect1_dropShadow_12_384" result="effect2_dropShadow_12_384"/>
<feBlend mode="normal" in="SourceGraphic" in2="effect2_dropShadow_12_384" result="shape"/>
</filter>
<filter id="filter2_dd_12_384" x="12.065" y="10.3577" width="144.52" height="143.285" filterUnits="userSpaceOnUse" color-interpolation-filters="sRGB">
<feFlood flood-opacity="0" result="BackgroundImageFix"/>
<feColorMatrix in="SourceAlpha" type="matrix" values="0 0 0 0 0 0 0 0 0 0 0 0 0 0 0 0 0 0 127 0" result="hardAlpha"/>
<feOffset dx="4" dy="4"/>
<feGaussianBlur stdDeviation="4"/>
<feComposite in2="hardAlpha" operator="out"/>
<feColorMatrix type="matrix" values="0 0 0 0 0 0 0 0 0 0 0 0 0 0 0 0 0 0 0.25 0"/>
<feBlend mode="normal" in2="BackgroundImageFix" result="effect1_dropShadow_12_384"/>
<feColorMatrix in="SourceAlpha" type="matrix" values="0 0 0 0 0 0 0 0 0 0 0 0 0 0 0 0 0 0 127 0" result="hardAlpha"/>
<feOffset dx="4" dy="4"/>
<feGaussianBlur stdDeviation="4"/>
<feComposite in2="hardAlpha" operator="out"/>
<feColorMatrix type="matrix" values="0 0 0 0 0 0 0 0 0 0 0 0 0 0 0 0 0 0 0.25 0"/>
<feBlend mode="normal" in2="effect1_dropShadow_12_384" result="effect2_dropShadow_12_384"/>
<feBlend mode="normal" in="SourceGraphic" in2="effect2_dropShadow_12_384" result="shape"/>
</filter>
<linearGradient id="paint0_linear_12_384" x1="138.502" y1="2.05418" x2="138.502" y2="61.3171" gradientUnits="userSpaceOnUse">
<stop stop-color="#166719"/>
<stop offset="1" stop-color="#311705"/>
</linearGradient>
<linearGradient id="paint1_linear_12_384" x1="46.5475" y1="38.2511" x2="46.5475" y2="56.3721" gradientUnits="userSpaceOnUse">
<stop stop-color="#FD3030"/>
<stop offset="1" stop-color="#E4DD31"/>
</linearGradient>
<linearGradient id="paint2_linear_12_384" x1="28.4234" y1="2.00182" x2="28.4234" y2="20.1228" gradientUnits="userSpaceOnUse">
<stop stop-color="#FD3030"/>
<stop offset="1" stop-color="#E4DD31"/>
</linearGradient>
<linearGradient id="paint3_linear_12_384" x1="10.2965" y1="38.2511" x2="10.2965" y2="56.3721" gradientUnits="userSpaceOnUse">
<stop stop-color="#FD3030"/>
<stop offset="1" stop-color="#E4DD31"/>
</linearGradient>
<linearGradient id="paint4_linear_12_384" x1="13.6965" y1="29.187" x2="13.6965" y2="35.9837" gradientUnits="userSpaceOnUse">
<stop stop-color="#FD3030"/>
<stop offset="1" stop-color="#E4DD31"/>
</linearGradient>
<linearGradient id="paint5_linear_12_384" x1="4.63421" y1="20.1247" x2="4.63421" y2="26.9214" gradientUnits="userSpaceOnUse">
<stop stop-color="#FD3030"/>
<stop offset="1" stop-color="#E4DD31"/>
</linearGradient>
<linearGradient id="paint6_linear_12_384" x1="13.6965" y1="11.0623" x2="13.6965" y2="17.8591" gradientUnits="userSpaceOnUse">
<stop stop-color="#FD3030"/>
<stop offset="1" stop-color="#E4DD31"/>
</linearGradient>
<linearGradient id="paint7_linear_12_384" x1="4.63421" y1="2" x2="4.63421" y2="8.79675" gradientUnits="userSpaceOnUse">
<stop stop-color="#FD3030"/>
<stop offset="1" stop-color="#E4DD31"/>
</linearGradient>
<linearGradient id="paint8_linear_12_384" x1="52.2115" y1="29.187" x2="52.2115" y2="35.9837" gradientUnits="userSpaceOnUse">
<stop stop-color="#FD3030"/>
<stop offset="1" stop-color="#E4DD31"/>
</linearGradient>
<linearGradient id="paint9_linear_12_384" x1="43.1491" y1="20.1247" x2="43.1491" y2="26.9214" gradientUnits="userSpaceOnUse">
<stop stop-color="#FD3030"/>
<stop offset="1" stop-color="#E4DD31"/>
</linearGradient>
<linearGradient id="paint10_linear_12_384" x1="52.2115" y1="11.0623" x2="52.2115" y2="17.8591" gradientUnits="userSpaceOnUse">
<stop stop-color="#FD3030"/>
<stop offset="1" stop-color="#E4DD31"/>
</linearGradient>
<linearGradient id="paint11_linear_12_384" x1="43.1491" y1="2" x2="43.1491" y2="8.79675" gradientUnits="userSpaceOnUse">
<stop stop-color="#FD3030"/>
<stop offset="1" stop-color="#E4DD31"/>
</linearGradient>
<linearGradient id="paint12_linear_12_384" x1="34.0868" y1="49.5772" x2="34.0868" y2="56.374" gradientUnits="userSpaceOnUse">
<stop stop-color="#FD3030"/>
<stop offset="1" stop-color="#E4DD31"/>
</linearGradient>
<linearGradient id="paint13_linear_12_384" x1="25.0245" y1="40.5149" x2="25.0245" y2="47.3117" gradientUnits="userSpaceOnUse">
<stop stop-color="#FD3030"/>
<stop offset="1" stop-color="#E4DD31"/>
</linearGradient>
<linearGradient id="paint14_linear_12_384" x1="34.0868" y1="31.4526" x2="34.0868" y2="38.2493" gradientUnits="userSpaceOnUse">
<stop stop-color="#FD3030"/>
<stop offset="1" stop-color="#E4DD31"/>
</linearGradient>
<linearGradient id="paint15_linear_12_384" x1="25.0245" y1="22.3902" x2="25.0245" y2="29.187" gradientUnits="userSpaceOnUse">
<stop stop-color="#FD3030"/>
<stop offset="1" stop-color="#E4DD31"/>
</linearGradient>
<clipPath id="clip0_12_384">
<rect width="54.374" height="54.374" fill="white" transform="translate(1.23584 2)"/>
</clipPath>
</defs>
</svg>
